<?xml version="1.0" encoding="UTF-8"?>
<!-- Generator: visioncortex VTracer 0.6.3 -->
<svg version="1.1" xmlns="http://www.w3.org/2000/svg" width="1280" height="960">
<path d="M0 0 C422.4 0 844.8 0 1280 0 C1280 316.8 1280 633.6 1280 960 C857.6 960 435.2 960 0 960 C0 643.2 0 326.4 0 0 Z " fill="#F9FCFE" transform="translate(0,0)"/>
<path d="M0 0 C7.48 0.01 14.47 0.41 21.78 2.19 C22.76 2.42 23.75 2.65 24.76 2.89 C32.2 4.75 32.2 4.75 34.87 6.76 C37.35 8.61 39.53 8.49 42.54 8.74 C46.72 9.58 50.21 11.95 53.78 14.19 C53.78 15.18 53.78 16.17 53.78 17.19 C55.76 18.88 57.76 20.55 59.78 22.19 C59.78 22.85 59.78 23.51 59.78 24.19 C60.55 24.64 61.31 25.1 62.09 25.57 C64.79 27.2 66.08 28.59 67.78 31.19 C61.95 31.82 58.6 30.33 53.49 27.57 C49.09 25.33 44.45 23.78 39.78 22.19 C42.29 24.15 44.43 25.5 47.34 26.88 C52 29.13 55.97 32.16 60.07 35.29 C62.86 37.25 65.73 38.68 68.78 40.19 C70.72 42.19 70.72 42.19 71.78 44.19 C71.45 45.18 71.12 46.17 70.78 47.19 C70.12 46.86 69.46 46.53 68.78 46.19 C71.75 50.15 74.72 54.11 77.78 58.19 C76.79 58.85 75.8 59.51 74.78 60.19 C75.44 60.19 76.1 60.19 76.78 60.19 C76.78 60.85 76.78 61.51 76.78 62.19 C75.46 62.52 74.14 62.85 72.78 63.19 C73.56 66.26 73.56 66.26 75.78 68.19 C75.12 69.18 74.46 70.17 73.78 71.19 C73.12 71.19 72.46 71.19 71.78 71.19 C72.25 71.84 72.72 72.49 73.21 73.17 C77.14 78.69 80.73 83.85 82.78 90.38 C83.76 93.13 84.55 94.37 86.78 96.19 C86.45 96.85 86.12 97.51 85.78 98.19 C81.82 94.73 81.82 94.73 77.78 91.19 C79.3 93.84 80.81 96.22 82.78 98.57 C85.14 101.67 86.36 104.57 87.78 108.19 C87.12 108.52 86.46 108.85 85.78 109.19 C85.78 108.53 85.78 107.87 85.78 107.19 C85.12 107.19 84.46 107.19 83.78 107.19 C84.22 108.02 84.65 108.85 85.09 109.71 C85.93 111.34 85.93 111.34 86.78 113 C87.62 114.62 87.62 114.62 88.47 116.27 C89.78 119.19 89.78 119.19 89.78 122.19 C89.12 122.19 88.46 122.19 87.78 122.19 C88.58 125.61 89.62 128.92 90.72 132.25 C91.06 133.3 91.4 134.34 91.75 135.41 C92.72 138.34 92.72 138.34 94.78 141.19 C94.45 142.18 94.12 143.17 93.78 144.19 C93.45 143.2 93.12 142.21 92.78 141.19 C91.79 140.86 90.8 140.53 89.78 140.19 C89.09 138.13 89.09 138.13 88.78 136.19 C88.12 136.19 87.46 136.19 86.78 136.19 C87.32 137.22 87.32 137.22 87.88 138.27 C88.34 139.17 88.8 140.07 89.28 141 C89.75 141.9 90.21 142.79 90.69 143.71 C91.78 146.19 91.78 146.19 91.78 149.19 C92.08 150.59 92.42 151.99 92.78 153.38 C93.11 154.64 93.44 155.89 93.78 157.19 C92.13 156.86 90.48 156.53 88.78 156.19 C89.11 157.84 89.44 159.49 89.78 161.19 C89.12 161.19 88.46 161.19 87.78 161.19 C88.34 162.19 88.89 163.19 89.46 164.23 C90.19 165.57 90.93 166.91 91.66 168.25 C92.02 168.91 92.39 169.57 92.76 170.24 C95.07 174.5 96.62 178.49 97.78 183.19 C97.12 183.19 96.46 183.19 95.78 183.19 C96.11 184.84 96.44 186.49 96.78 188.19 C95.98 187.08 95.98 187.08 95.16 185.94 C92.88 183.04 92.88 183.04 89.59 181.13 C86.78 179.19 86.78 179.19 86.09 177 C85.99 176.4 85.89 175.81 85.78 175.19 C84.79 174.86 83.8 174.53 82.78 174.19 C81.64 172.34 80.59 170.43 79.59 168.5 C76.46 162.89 73.29 159.45 67.78 156.19 C69 159.66 70.17 161.66 72.78 164.19 C77.7 170.03 81.25 176.45 84.78 183.19 C85.86 185.19 86.95 187.19 88.03 189.19 C89.28 191.52 90.53 193.86 91.78 196.19 C92.37 197.29 92.37 197.29 92.97 198.41 C108.44 227.35 108.44 227.35 108.78 236.19 C106.89 233.97 105.85 232.52 105.28 229.63 C104.69 226.75 103.83 226.21 101.78 224.19 C100.75 222.53 100.75 222.53 99.72 220.57 C88.69 199.9 88.69 199.9 74.78 181.19 C72.79 178.73 70.83 176.25 68.89 173.76 C62.92 165.91 62.92 165.91 55.78 159.19 C54.79 159.19 53.8 159.19 52.78 159.19 C53.37 162.75 54.72 164.56 57.16 167.19 C59.52 169.77 61.72 172.36 63.78 175.19 C63.12 175.19 62.46 175.19 61.78 175.19 C62.46 176.26 63.14 177.34 63.84 178.44 C65.83 181.88 65.83 181.88 65.47 184.38 C65.24 184.98 65.02 185.57 64.78 186.19 C65.18 188.29 65.18 188.29 65.78 190.19 C65.78 190.85 65.78 191.51 65.78 192.19 C67.79 200.23 71.68 206.9 76 213.89 C78.42 217.99 79.49 221.45 79.78 226.19 C79.45 226.85 79.12 227.51 78.78 228.19 C79.05 228.73 79.32 229.26 79.59 229.82 C80.94 232.51 81.53 235.2 82.22 238.12 C83.08 241.28 84.47 244.19 85.78 247.19 C87.88 252.09 89.05 255.74 88.16 261.07 C87.52 265.35 88.18 267.6 90.16 271.44 C93.43 277.81 93.91 284.09 93.78 291.19 C93.45 292.18 93.12 293.17 92.78 294.19 C93.3 296.7 93.89 299.1 94.59 301.57 C94.77 302.23 94.95 302.89 95.14 303.57 C96.14 307.22 97.38 310.68 98.78 314.19 C99.46 316.96 99.64 319.29 99.78 322.19 C98.34 324.19 98.34 324.19 96.78 325.19 C96 324.39 95.21 323.58 94.41 322.75 C92.06 320.2 92.06 320.2 89.78 319.19 C91.27 325.63 91.27 325.63 92.78 332.19 C91.13 332.19 89.48 332.19 87.78 332.19 C86.89 330.43 86.89 330.43 85.98 328.63 C80.2 317.36 73.86 306.69 66.78 296.19 C66.32 301.39 67.37 303.65 70.59 307.69 C73.52 311.4 75.72 314.94 77.78 319.19 C79.05 321.29 80.35 323.37 81.66 325.44 C86.8 333.7 91 341.84 93.78 351.19 C94.44 350.53 95.1 349.87 95.78 349.19 C96.79 351.48 97.79 353.77 98.78 356.07 C99.07 356.72 99.35 357.37 99.65 358.04 C101.78 362.96 101.78 362.96 101.78 365.19 C102.44 365.19 103.1 365.19 103.78 365.19 C104.11 368.82 104.44 372.45 104.78 376.19 C104.12 376.19 103.46 376.19 102.78 376.19 C103.44 380.15 104.1 384.11 104.78 388.19 C104.12 387.86 103.46 387.53 102.78 387.19 C102.78 385.87 102.78 384.55 102.78 383.19 C102.12 383.19 101.46 383.19 100.78 383.19 C100.82 382.24 100.86 381.29 100.91 380.32 C101.13 377.09 101.13 377.09 98.78 375.19 C98.31 372.83 98.02 370.48 97.74 368.09 C96.56 364.53 94.64 362.26 92.35 359.34 C89.82 355.87 88.15 352.07 86.34 348.19 C76.96 328.79 64.76 305.31 47.51 291.69 C45.57 290.01 44.21 288.22 42.72 286.13 C38.17 279.79 32.83 276.08 25.99 272.48 C23.15 270.82 20.85 268.79 18.49 266.52 C14.23 263.2 10.24 262.96 4.97 263.07 C2.93 263.11 0.89 263.15 -1.22 263.19 C2.74 266.16 6.7 269.13 10.78 272.19 C8.78 273.19 8.78 273.19 6.78 273.19 C7.48 273.41 8.18 273.63 8.9 273.85 C16.43 276.48 16.43 276.48 18.41 280.44 C18.53 281.35 18.65 282.26 18.78 283.19 C17.79 283.69 17.79 283.69 16.78 284.19 C17.44 285.18 18.1 286.17 18.78 287.19 C18.78 288.51 18.78 289.83 18.78 291.19 C11.84 289.35 5.66 286.91 -0.66 283.5 C-1.48 283.07 -2.3 282.63 -3.15 282.18 C-8.81 279.11 -14.01 275.76 -19.09 271.78 C-21.07 270.3 -22.97 269.21 -25.22 268.19 C-24.89 269.51 -24.56 270.83 -24.22 272.19 C-26.2 272.19 -28.18 272.19 -30.22 272.19 C-29.5 272.48 -28.78 272.77 -28.04 273.08 C-20.41 276.21 -12.92 279.58 -5.47 283.13 C-4.4 283.63 -3.33 284.13 -2.22 284.64 C5.57 288.36 13.08 292.54 18.78 299.19 C18.78 299.85 18.78 300.51 18.78 301.19 C15.52 299.98 12.84 298.66 10.03 296.63 C5.6 293.61 1 291.03 -3.72 288.5 C-4.42 288.12 -5.12 287.74 -5.84 287.35 C-10.16 285.06 -14.46 283.33 -19.12 281.86 C-21.98 280.95 -24.74 279.83 -27.53 278.75 C-35.9 275.72 -44.51 274.15 -53.26 272.59 C-55.22 272.19 -55.22 272.19 -58.22 271.19 C-70.81 269.11 -83.48 268.62 -96.22 268.19 C-96.06 268.81 -95.9 269.43 -95.74 270.07 C-94.46 275.25 -94.14 279.23 -96.79 284.05 C-102.06 291.48 -107.17 296.51 -115.48 300.3 C-117.41 301.18 -117.41 301.18 -119.22 303.19 C-119.55 302.2 -119.88 301.21 -120.22 300.19 C-125.05 300.6 -127.04 302.65 -130.22 306.19 C-130.88 305.86 -131.54 305.53 -132.22 305.19 C-131.56 304.2 -130.9 303.21 -130.22 302.19 C-135.52 304.45 -138.44 305.99 -141.22 311.19 C-143.46 313.62 -145.82 315.91 -148.22 318.19 C-148.88 317.86 -149.54 317.53 -150.22 317.19 C-149.62 316.47 -149.02 315.75 -148.41 315 C-146.44 312.48 -144.83 309.95 -143.22 307.19 C-142.89 306.86 -142.56 306.53 -142.22 306.19 C-141.96 301.64 -142.22 298.31 -144.22 294.19 C-144.81 295.03 -144.81 295.03 -145.41 295.88 C-147.22 298.19 -147.22 298.19 -149.91 300.57 C-152.53 303.02 -152.53 303.02 -152.47 306.44 C-152.39 307.35 -152.3 308.26 -152.22 309.19 C-154.99 311.96 -162.47 311.05 -166.22 311.19 C-170.06 311 -173.55 310.41 -177.22 309.19 C-179.66 309.51 -179.66 309.51 -182.32 310.19 C-183.8 310.53 -183.8 310.53 -185.3 310.88 C-186.33 311.13 -187.35 311.37 -188.41 311.63 C-189.44 311.87 -190.48 312.11 -191.54 312.36 C-194.1 312.97 -196.66 313.57 -199.22 314.19 C-198.89 314.85 -198.56 315.51 -198.22 316.19 C-199.21 316.19 -200.2 316.19 -201.22 316.19 C-201.55 318.5 -201.88 320.81 -202.22 323.19 C-202.88 322.86 -203.54 322.53 -204.22 322.19 C-203.89 320.87 -203.56 319.55 -203.22 318.19 C-204.29 318.54 -205.36 318.89 -206.47 319.25 C-211.14 320.42 -211.14 320.42 -214.22 319.19 C-212.9 318.53 -211.58 317.87 -210.22 317.19 C-220.29 319.65 -230.27 322.27 -240.22 325.19 C-240.22 324.53 -240.22 323.87 -240.22 323.19 C-236.05 321.87 -231.89 320.56 -227.72 319.25 C-226.54 318.88 -225.37 318.51 -224.16 318.12 C-214.34 315.06 -214.34 315.06 -209.46 314.56 C-208.39 314.44 -207.32 314.32 -206.22 314.19 C-204.84 312.27 -204.84 312.27 -204.22 310.19 C-203.23 309.86 -202.24 309.53 -201.22 309.19 C-201.22 310.18 -201.22 311.17 -201.22 312.19 C-199.51 311.76 -199.51 311.76 -197.77 311.32 C-192.55 310.01 -187.3 308.8 -182.05 307.6 C-178.03 306.71 -178.03 306.71 -174.22 305.19 C-173.89 304.2 -173.56 303.21 -173.22 302.19 C-174.21 301.86 -175.2 301.53 -176.22 301.19 C-176.55 300.86 -176.88 300.53 -177.22 300.19 C-178.36 300.69 -178.36 300.69 -179.53 301.19 C-182.22 302.19 -182.22 302.19 -185.22 302.19 C-185.55 302.85 -185.88 303.51 -186.22 304.19 C-186.22 303.53 -186.22 302.87 -186.22 302.19 C-188.82 302.83 -191.43 303.48 -194.03 304.13 C-194.77 304.31 -195.51 304.49 -196.27 304.68 C-199.29 305.43 -202.26 306.21 -205.22 307.19 C-206.21 307.11 -207.2 307.03 -208.22 306.94 C-212.86 306.83 -216.46 309.01 -220.55 311.01 C-223.87 312.48 -226.62 312.95 -230.22 313.19 C-230.22 313.85 -230.22 314.51 -230.22 315.19 C-229.56 315.52 -228.9 315.85 -228.22 316.19 C-229.21 316.19 -230.2 316.19 -231.22 316.19 C-231.22 315.53 -231.22 314.87 -231.22 314.19 C-231.88 314.43 -232.53 314.67 -233.21 314.92 C-240.39 317.45 -247.52 319.25 -254.99 320.71 C-259.33 321.6 -262.45 322.76 -266.22 325.19 C-270.03 325.88 -270.03 325.88 -273.22 326.19 C-273.22 326.85 -273.22 327.51 -273.22 328.19 C-273.75 328.33 -274.28 328.47 -274.83 328.61 C-285.75 331.52 -296.3 334.82 -306.74 339.15 C-318.02 343.81 -329.58 347.69 -341.18 351.48 C-344.27 352.56 -347.23 353.86 -350.22 355.19 C-349.56 355.85 -348.9 356.51 -348.22 357.19 C-349.49 357.7 -350.76 358.19 -352.03 358.69 C-353.09 359.11 -353.09 359.11 -354.18 359.53 C-356.22 360.19 -356.22 360.19 -359.22 360.19 C-359.55 360.85 -359.88 361.51 -360.22 362.19 C-361.27 362.09 -362.32 361.98 -363.41 361.88 C-368.77 361.85 -373.17 363.96 -378.07 365.97 C-380.64 366.97 -382.9 367.64 -385.59 368.13 C-389.73 368.92 -393.47 370.44 -397.34 372.07 C-403.75 374.75 -410.12 376.63 -416.88 378.23 C-420.28 379.1 -420.28 379.1 -423.47 380.82 C-426.63 382.4 -427.92 382.26 -431.22 381.19 C-431.55 382.18 -431.88 383.17 -432.22 384.19 C-433.87 384.52 -435.52 384.85 -437.22 385.19 C-436.89 386.18 -436.56 387.17 -436.22 388.19 C-436.88 388.52 -437.54 388.85 -438.22 389.19 C-439.21 388.86 -440.2 388.53 -441.22 388.19 C-441.22 388.85 -441.22 389.51 -441.22 390.19 C-443.01 390.72 -444.8 391.24 -446.59 391.75 C-447.59 392.04 -448.59 392.33 -449.62 392.63 C-452.22 393.19 -452.22 393.19 -454.22 392.19 C-454.55 392.85 -454.88 393.51 -455.22 394.19 C-455.88 393.86 -456.54 393.53 -457.22 393.19 C-457.55 393.85 -457.88 394.51 -458.22 395.19 C-458.88 394.86 -459.54 394.53 -460.22 394.19 C-460.55 394.85 -460.88 395.51 -461.22 396.19 C-462.21 395.86 -463.2 395.53 -464.22 395.19 C-464.55 395.85 -464.88 396.51 -465.22 397.19 C-467.2 397.19 -469.18 397.19 -471.22 397.19 C-471.55 397.85 -471.88 398.51 -472.22 399.19 C-472.88 398.86 -473.54 398.53 -474.22 398.19 C-474.22 398.85 -474.22 399.51 -474.22 400.19 C-475.4 400.38 -476.58 400.58 -477.8 400.78 C-479.35 401.04 -480.91 401.3 -482.47 401.57 C-483.25 401.69 -484.02 401.82 -484.82 401.95 C-490.25 402.87 -490.25 402.87 -495.22 405.19 C-494.23 405.52 -493.24 405.85 -492.22 406.19 C-496.39 411.33 -500.06 412.28 -506.47 413.32 C-507.26 413.46 -508.05 413.6 -508.86 413.75 C-510.6 414.06 -512.35 414.36 -514.09 414.65 C-516.41 415.05 -518.73 415.48 -521.05 415.92 C-531.41 417.87 -541.71 419.08 -552.22 419.88 C-553.02 419.94 -553.82 420 -554.64 420.07 C-590 422.81 -624.51 421.02 -658.22 409.19 C-659.27 408.84 -660.33 408.48 -661.41 408.12 C-686.85 399.03 -708.9 382.75 -728.22 364.19 C-728.73 363.7 -729.24 363.21 -729.77 362.7 C-736.47 356.25 -742.62 349.64 -748.22 342.19 C-748.68 341.59 -749.13 340.99 -749.6 340.37 C-770.96 312.2 -796.61 271.82 -802.22 236.19 C-801.3 233.85 -801.3 233.85 -800.22 232.19 C-797.99 234.94 -796.6 237.4 -795.46 240.74 C-795.17 241.61 -794.87 242.47 -794.56 243.36 C-794.26 244.25 -793.96 245.14 -793.66 246.07 C-793.35 246.95 -793.05 247.84 -792.74 248.75 C-791.21 253.22 -789.71 257.7 -788.22 262.19 C-787.56 262.19 -786.9 262.19 -786.22 262.19 C-786.22 258.74 -787.07 256.74 -788.38 253.55 C-788.84 252.4 -789.3 251.26 -789.78 250.09 C-790.02 249.48 -790.27 248.88 -790.52 248.25 C-794.46 238.54 -798.2 228.79 -801.41 218.82 C-801.7 217.93 -801.99 217.04 -802.29 216.12 C-803.68 211.68 -804.56 207.9 -804.22 203.19 C-799.5 206.85 -798.28 211.79 -796.47 217.25 C-796.15 218.16 -795.84 219.07 -795.51 220.01 C-793.22 226.75 -793.22 226.75 -793.22 230.19 C-792.56 230.52 -791.9 230.85 -791.22 231.19 C-790.1 233.53 -789.07 235.85 -788.09 238.25 C-787.82 238.92 -787.54 239.58 -787.25 240.26 C-786.57 241.9 -785.89 243.55 -785.22 245.19 C-785.68 243.98 -786.14 242.77 -786.61 241.53 C-790.25 231.84 -793.59 222.21 -796.22 212.19 C-793.11 212.19 -791.87 212.73 -789.22 214.19 C-789.45 213.56 -789.67 212.94 -789.91 212.29 C-790.34 211.07 -790.34 211.07 -790.78 209.82 C-791.22 208.6 -791.22 208.6 -791.66 207.35 C-792.22 205.19 -792.22 205.19 -791.22 203.19 C-791.88 203.19 -792.54 203.19 -793.22 203.19 C-793.56 201.46 -793.89 199.73 -794.22 198 C-794.4 197.04 -794.59 196.08 -794.78 195.08 C-795.19 192.4 -795.3 189.9 -795.22 187.19 C-793.41 189.91 -792.67 191.62 -791.82 194.69 C-791.57 195.57 -791.32 196.46 -791.06 197.36 C-790.8 198.3 -790.55 199.23 -790.28 200.19 C-789.88 201.61 -789.88 201.61 -789.48 203.06 C-787.87 208.77 -786.29 214.49 -784.76 220.23 C-784.3 221.9 -783.77 223.55 -783.22 225.19 C-782.56 225.19 -781.9 225.19 -781.22 225.19 C-780.72 226.18 -780.72 226.18 -780.22 227.19 C-779.71 220.76 -781.99 215.57 -784.17 209.65 C-784.45 208.88 -784.72 208.1 -785 207.31 C-785.26 206.61 -785.52 205.92 -785.78 205.2 C-786.29 202.87 -785.96 201.43 -785.22 199.19 C-782.22 199.19 -782.22 199.19 -780.82 200.53 C-775.85 207.67 -770.22 219.29 -770.22 228.19 C-769.32 228.56 -769.32 228.56 -768.41 228.94 C-765.93 230.35 -764.78 231.84 -763.22 234.19 C-763.75 233.14 -764.29 232.09 -764.84 231 C-766.12 228.08 -766.3 227.48 -765.41 224.25 C-765.01 223.57 -764.62 222.89 -764.22 222.19 C-763.02 223.99 -761.86 225.82 -760.78 227.69 C-759.4 229.9 -758.08 231.41 -756.22 233.19 C-756.43 232.61 -756.65 232.03 -756.87 231.43 C-758.5 226.86 -759.6 223.11 -759.22 218.19 C-756.02 220.32 -755.59 221.05 -754.17 224.44 C-753.61 225.73 -753.61 225.73 -753.05 227.04 C-752.3 228.82 -751.55 230.6 -750.8 232.39 C-748.17 238.48 -745 243.75 -741.22 249.19 C-739.54 251.8 -737.91 254.43 -736.28 257.07 C-735.41 258.45 -734.55 259.84 -733.68 261.23 C-732.17 263.65 -730.68 266.08 -729.19 268.53 C-728.6 269.49 -728.01 270.45 -727.41 271.44 C-726.9 272.27 -726.4 273.1 -725.89 273.96 C-723.96 276.54 -721.73 278.18 -719.22 280.19 C-717.85 281.92 -716.53 283.69 -715.28 285.5 C-710.72 291.95 -705.87 297.68 -700.22 303.19 C-699.73 303.7 -699.24 304.21 -698.74 304.74 C-691.24 312.5 -682.95 318.89 -673.76 324.51 C-671.38 326.08 -669.46 327.73 -667.41 329.69 C-662.17 334.53 -655.63 337.23 -649.22 340.19 C-649.55 339.2 -649.88 338.21 -650.22 337.19 C-649.56 336.86 -648.9 336.53 -648.22 336.19 C-648.22 335.53 -648.22 334.87 -648.22 334.19 C-642.64 334.95 -642.64 334.95 -640.44 336.2 C-637.41 337.55 -634.71 337.55 -631.41 337.69 C-626.36 337.98 -622.05 338.67 -617.22 340.19 C-614.23 340.63 -611.23 340.93 -608.22 341.19 C-609.19 340.78 -610.16 340.37 -611.16 339.94 C-611.79 339.66 -612.43 339.39 -613.09 339.1 C-614.54 338.48 -616.01 337.87 -617.48 337.28 C-622.5 335.18 -626.22 332.88 -630.22 329.19 C-629.56 328.53 -628.9 327.87 -628.22 327.19 C-627.29 327.48 -626.36 327.77 -625.4 328.07 C-624.17 328.44 -622.93 328.81 -621.66 329.19 C-620.44 329.56 -619.22 329.93 -617.96 330.32 C-614.24 331.19 -611.03 331.35 -607.22 331.19 C-609.2 330.53 -611.18 329.87 -613.22 329.19 C-613.22 328.53 -613.22 327.87 -613.22 327.19 C-614.21 327.1 -615.21 327.01 -616.23 326.92 C-620.61 326.29 -624.1 324.55 -627.97 322.5 C-628.66 322.14 -629.36 321.78 -630.08 321.41 C-631.48 320.68 -632.87 319.95 -634.27 319.21 C-635.99 318.31 -637.74 317.44 -639.49 316.57 C-645.46 313.55 -649.23 310.58 -653.22 305.19 C-651.9 304.86 -650.58 304.53 -649.22 304.19 C-649.51 303.56 -649.8 302.94 -650.09 302.29 C-650.46 301.47 -650.84 300.66 -651.22 299.82 C-651.59 299 -651.96 298.19 -652.34 297.35 C-653.22 295.19 -653.22 295.19 -653.22 293.19 C-649.3 293.97 -645.85 295.58 -642.22 297.19 C-642.22 296.53 -642.22 295.87 -642.22 295.19 C-639.83 295.77 -637.55 296.41 -635.22 297.19 C-639.55 293.51 -644 290.05 -648.59 286.69 C-649.58 285.97 -649.58 285.97 -650.58 285.23 C-654.03 282.71 -657.49 280.32 -661.16 278.13 C-662.17 277.49 -663.18 276.85 -664.22 276.19 C-664.22 275.53 -664.22 274.87 -664.22 274.19 C-664.8 274.11 -665.37 274.03 -665.97 273.94 C-668.9 272.96 -670.13 271.46 -672.22 269.19 C-673.36 268.08 -673.36 268.08 -674.53 266.94 C-675.42 266.03 -676.3 265.13 -677.22 264.19 C-678.01 263.41 -678.01 263.41 -678.81 262.62 C-685.01 256.11 -691.63 246.18 -693.22 237.19 C-692.23 237.19 -691.24 237.19 -690.22 237.19 C-688.93 238.84 -688.93 238.84 -687.59 241.13 C-684.15 246.58 -679.87 250.77 -675.22 255.19 C-673.88 256.52 -672.55 257.85 -671.22 259.19 C-672.42 256.7 -673.67 254.51 -675.22 252.19 C-673.22 253.19 -671.22 254.19 -669.22 255.19 C-670.21 252.72 -670.21 252.72 -671.22 250.19 C-669.57 251.18 -667.92 252.17 -666.22 253.19 C-668.93 247.64 -671.79 242.34 -675.22 237.19 C-675.8 235.18 -676.22 233.17 -676.66 231.13 C-677.2 228.89 -677.2 228.89 -679.22 226.19 C-679.76 223.53 -679.95 220.9 -680.22 218.19 C-679.23 218.52 -678.24 218.85 -677.22 219.19 C-676.08 221.52 -676.08 221.52 -674.97 224.44 C-672.16 230.96 -668.95 233.65 -662.5 236.31 C-661.75 236.6 -660.99 236.89 -660.22 237.19 C-660.91 236.36 -661.59 235.52 -662.3 234.66 C-673.22 221.13 -673.22 221.13 -673.22 213.19 C-670.26 214.56 -667.78 216.18 -665.22 218.19 C-664.56 217.86 -663.9 217.53 -663.22 217.19 C-662.64 218.14 -662.06 219.09 -661.47 220.07 C-659.3 223.08 -658.44 223.79 -655.22 225.19 C-655.59 224.64 -655.96 224.08 -656.35 223.51 C-656.82 222.79 -657.29 222.06 -657.78 221.32 C-658.26 220.6 -658.73 219.88 -659.22 219.14 C-659.55 218.49 -659.88 217.85 -660.22 217.19 C-659.89 216.53 -659.56 215.87 -659.22 215.19 C-658.49 216.02 -658.49 216.02 -657.76 216.87 C-657.13 217.59 -656.49 218.32 -655.84 219.07 C-655.22 219.78 -654.59 220.5 -653.94 221.24 C-650.86 224.72 -648.72 225.9 -644.22 227.19 C-643.23 227.19 -642.24 227.19 -641.22 227.19 C-639.84 227.49 -638.46 227.83 -637.09 228.19 C-634.69 228.9 -634.69 228.9 -632.22 229.19 C-631.56 228.53 -630.9 227.87 -630.22 227.19 C-628.24 228.18 -626.26 229.17 -624.22 230.19 C-624.22 229.53 -624.22 228.87 -624.22 228.19 C-620.72 229.48 -617.77 231.03 -614.66 233.07 C-609.95 235.96 -605.28 237.65 -600.01 239.25 C-597.55 240.08 -595.57 241.02 -593.34 242.32 C-588.64 244.86 -583.54 245.14 -578.29 245.7 C-575.22 246.19 -575.22 246.19 -572.22 248.19 C-567.49 249.29 -562.81 249.32 -557.98 249.29 C-556.82 249.29 -556.82 249.29 -555.65 249.28 C-553.21 249.28 -550.78 249.27 -548.34 249.25 C-546.68 249.25 -545.03 249.24 -543.37 249.24 C-539.32 249.23 -535.27 249.21 -531.22 249.19 C-530.94 248.56 -530.66 247.93 -530.37 247.28 C-528.8 244.43 -527.02 243.79 -524.09 242.44 C-523.18 242.01 -522.27 241.58 -521.34 241.14 C-520.64 240.83 -519.94 240.51 -519.22 240.19 C-520.54 240.52 -521.86 240.85 -523.22 241.19 C-523.55 240.53 -523.88 239.87 -524.22 239.19 C-517.59 236.19 -517.59 236.19 -514.22 236.19 C-514.18 235.58 -514.15 234.97 -514.11 234.34 C-513.22 232.19 -513.22 232.19 -510.58 230.92 C-509.39 230.55 -508.2 230.19 -506.97 229.82 C-506.31 229.61 -505.65 229.4 -504.97 229.19 C-500.21 227.72 -495.41 226.4 -490.62 225.06 C-489.74 224.81 -488.87 224.57 -487.97 224.32 C-487.08 224.07 -486.2 223.82 -485.29 223.57 C-473.29 220.16 -461.63 215.72 -450.13 210.92 C-448.18 210.17 -446.25 209.69 -444.22 209.19 C-436.19 206.58 -429.04 202.41 -421.76 198.21 C-414.96 194.31 -414.96 194.31 -411.84 193.82 C-408.98 193.3 -408.98 193.3 -406.16 191.07 C-403.22 189.19 -403.22 189.19 -400.84 189.44 C-400.04 189.81 -400.04 189.81 -399.22 190.19 C-399.22 189.53 -399.22 188.87 -399.22 188.19 C-400.21 187.86 -401.2 187.53 -402.22 187.19 C-403.38 184.78 -403.38 184.78 -404.48 181.62 C-404.88 180.5 -405.27 179.37 -405.68 178.22 C-406.29 176.44 -406.29 176.44 -406.91 174.63 C-407.32 173.44 -407.74 172.25 -408.17 171.03 C-409.19 168.09 -410.21 165.14 -411.22 162.19 C-412.93 163.9 -412.45 166.19 -412.53 168.54 C-412.58 169.62 -412.62 170.7 -412.66 171.81 C-412.7 172.95 -412.74 174.08 -412.78 175.25 C-412.82 176.39 -412.87 177.53 -412.91 178.71 C-413.02 181.54 -413.12 184.36 -413.22 187.19 C-415.2 187.22 -417.18 187.24 -419.16 187.25 C-420.26 187.26 -421.36 187.28 -422.5 187.29 C-425.22 187.19 -425.22 187.19 -426.22 186.19 C-426.32 184.39 -426.36 182.59 -426.36 180.78 C-426.37 179.05 -426.37 179.05 -426.38 177.29 C-426.38 175.4 -426.38 175.4 -426.39 173.48 C-426.39 172.19 -426.39 170.91 -426.4 169.59 C-426.4 166.88 -426.4 164.16 -426.4 161.44 C-426.4 157.96 -426.42 154.47 -426.43 150.99 C-426.45 147.67 -426.45 144.36 -426.45 141.04 C-426.46 139.78 -426.46 138.53 -426.47 137.23 C-426.47 136.08 -426.46 134.92 -426.46 133.73 C-426.46 132.7 -426.46 131.68 -426.47 130.63 C-426.22 128.19 -426.22 128.19 -424.22 126.19 C-421.87 125.96 -421.87 125.96 -419.16 126 C-418.26 126.01 -417.36 126.02 -416.43 126.02 C-414.22 126.19 -414.22 126.19 -413.22 127.19 C-413.01 130.17 -412.84 133.14 -412.72 136.13 C-412.65 137.78 -412.58 139.44 -412.5 141.09 C-412.47 141.83 -412.44 142.57 -412.41 143.33 C-412.32 145.28 -412.32 145.28 -411.22 147.19 C-410.96 146.59 -410.69 145.99 -410.42 145.37 C-409.24 142.66 -408.04 139.96 -406.84 137.25 C-406.43 136.31 -406.02 135.36 -405.59 134.39 C-404.99 133.04 -404.99 133.04 -404.38 131.66 C-404.02 130.83 -403.65 130 -403.27 129.14 C-402.22 127.19 -402.22 127.19 -400.22 126.19 C-392.75 125.83 -392.75 125.83 -389.22 128.19 C-389.66 129.01 -389.66 129.01 -390.1 129.85 C-392.8 135.07 -395.31 140.37 -397.66 145.75 C-398.19 146.95 -398.73 148.15 -399.28 149.38 C-401.21 157.21 -397.52 164.52 -394.59 171.75 C-394.11 172.98 -394.11 172.98 -393.61 174.23 C-392.82 176.22 -392.02 178.21 -391.22 180.19 C-388.36 180.31 -388.36 180.31 -386.22 179.69 C-384.22 179.19 -384.22 179.19 -381.22 179.19 C-379.04 177.61 -378.31 176.69 -377.83 174.02 C-377.83 173.18 -377.82 172.34 -377.82 171.48 C-377.8 170.52 -377.79 169.57 -377.78 168.58 C-377.78 167.56 -377.78 166.53 -377.78 165.47 C-377.76 164.41 -377.75 163.35 -377.74 162.27 C-377.7 158.89 -377.67 155.51 -377.66 152.13 C-377.63 148.74 -377.6 145.36 -377.56 141.98 C-377.54 139.87 -377.52 137.76 -377.52 135.66 C-377.51 134.71 -377.5 133.76 -377.49 132.78 C-377.48 131.94 -377.48 131.1 -377.48 130.23 C-377.22 128.19 -377.22 128.19 -375.22 126.19 C-371.49 125.73 -367.72 125.87 -363.97 125.88 C-362.93 125.86 -361.89 125.85 -360.82 125.83 C-355.23 125.83 -351 125.94 -346.22 129.19 C-341.89 133.87 -341.05 137.29 -340.97 143.57 C-340.94 144.69 -340.92 145.81 -340.89 146.96 C-341.25 150.53 -342.18 152.29 -344.22 155.19 C-344.77 156.12 -345.33 157.05 -345.91 158 C-346.34 158.72 -346.77 159.45 -347.22 160.19 C-346.23 161.51 -345.24 162.83 -344.22 164.19 C-343.62 163.83 -343.03 163.46 -342.42 163.09 C-324.45 152.19 -324.45 152.19 -321.22 152.19 C-321.22 150.87 -321.22 149.55 -321.22 148.19 C-321.88 147.86 -322.54 147.53 -323.22 147.19 C-322.75 146.85 -322.29 146.51 -321.81 146.16 C-319.51 143.32 -319.26 140.2 -318.72 136.69 C-317.67 129.91 -317.67 129.91 -315.98 127.23 C-313.44 125.73 -311.45 125.9 -308.53 126 C-307.54 126.03 -306.54 126.06 -305.52 126.08 C-304.76 126.12 -304 126.15 -303.22 126.19 C-302.09 128.93 -301.1 131.59 -300.28 134.44 C-299.93 135.35 -299.58 136.26 -299.22 137.19 C-298.23 137.52 -297.24 137.85 -296.22 138.19 C-296.22 137.53 -296.22 136.87 -296.22 136.19 C-295.17 135.76 -294.11 135.32 -293.03 134.88 C-289.92 133.53 -287 132.15 -284.22 130.19 C-283.89 129.2 -283.56 128.21 -283.22 127.19 C-278.46 123.9 -273.36 121.22 -267.66 120.13 C-264.05 119.57 -264.05 119.57 -262.72 116.69 C-262.15 114.29 -262.15 114.29 -262.22 112.19 C-263.21 111.86 -264.2 111.53 -265.22 111.19 C-264.89 110.86 -264.56 110.53 -264.22 110.19 C-264.47 108.16 -264.8 106.14 -265.16 104.13 C-265.35 103.02 -265.54 101.92 -265.75 100.78 C-265.98 99.5 -265.98 99.5 -266.22 98.19 C-266.88 98.52 -267.54 98.85 -268.22 99.19 C-268.22 104.14 -268.22 109.09 -268.22 114.19 C-270.85 114.19 -272.73 113.94 -275.22 113.19 C-277.16 111.25 -276.38 107.59 -276.39 104.94 C-276.39 104.22 -276.39 103.49 -276.4 102.74 C-276.4 101.2 -276.4 99.66 -276.4 98.13 C-276.41 95.77 -276.42 93.41 -276.44 91.05 C-276.45 89.55 -276.45 88.06 -276.45 86.57 C-276.46 85.86 -276.46 85.15 -276.47 84.42 C-276.45 79.42 -276.45 79.42 -274.22 77.19 C-268.81 76.82 -264.34 77.18 -259.22 79.19 C-257.02 81.45 -256.27 82.77 -255.85 85.92 C-255.87 86.87 -255.89 87.83 -255.91 88.82 C-255.91 89.78 -255.91 90.74 -255.92 91.73 C-256.22 94.19 -256.22 94.19 -258.22 96.19 C-258.32 98.24 -258.32 98.24 -257.97 100.5 C-257.88 101.26 -257.79 102.02 -257.7 102.8 C-257.17 105.43 -256.28 107.73 -255.22 110.19 C-254.52 109.76 -253.82 109.32 -253.1 108.88 C-252.19 108.32 -251.28 107.76 -250.34 107.19 C-248.99 106.35 -248.99 106.35 -247.6 105.5 C-245.22 104.19 -245.22 104.19 -243.22 104.19 C-243.55 97.59 -243.88 90.99 -244.22 84.19 C-246.69 83.2 -246.69 83.2 -249.22 82.19 C-248.34 78.32 -248.34 78.32 -247.22 77.19 C-244.71 77.09 -242.23 77.05 -239.72 77.07 C-239.02 77.06 -238.31 77.06 -237.59 77.05 C-232.34 77.06 -232.34 77.06 -231.22 78.19 C-231.18 79.86 -231.18 81.52 -231.22 83.19 C-232.54 83.85 -233.86 84.51 -235.22 85.19 C-235.22 89.15 -235.22 93.11 -235.22 97.19 C-229.62 94.79 -224.32 92.22 -219.07 89.14 C-217.22 88.19 -217.22 88.19 -215.22 88.19 C-215.16 87.29 -215.16 87.29 -215.09 86.38 C-214.22 84.19 -214.22 84.19 -211.34 82.38 C-208.22 81.19 -208.22 81.19 -205.22 82.19 C-202.9 81.66 -202.9 81.66 -200.53 80.75 C-199.32 80.32 -199.32 80.32 -198.08 79.88 C-197.16 79.54 -197.16 79.54 -196.22 79.19 C-196.22 79.85 -196.22 80.51 -196.22 81.19 C-197.54 81.85 -198.86 82.51 -200.22 83.19 C-196.23 81.86 -193.2 79.88 -189.87 77.41 C-188.35 76.29 -186.79 75.24 -185.22 74.19 C-186.54 74.52 -187.86 74.85 -189.22 75.19 C-188.18 71.73 -187.04 71.09 -183.81 69.27 C-182.45 68.65 -181.09 68.04 -179.72 67.44 C-179.03 67.12 -178.34 66.81 -177.63 66.48 C-172.54 64.19 -172.54 64.19 -170.22 64.19 C-170.22 63.53 -170.22 62.87 -170.22 62.19 C-168.02 60.16 -166.01 59.11 -163.22 58 C-158.43 56.09 -154.43 52.95 -150.28 49.93 C-146.85 47.98 -144.12 47.51 -140.22 47.19 C-139.89 46.2 -139.56 45.21 -139.22 44.19 C-136.88 43.07 -134.64 42.09 -132.22 41.19 C-128.63 39.82 -125.39 38.37 -122.22 36.19 C-122.22 35.53 -122.22 34.87 -122.22 34.19 C-121.35 34.11 -120.49 34.03 -119.59 33.94 C-116.15 33.39 -116.15 33.39 -113.43 31.31 C-107.09 27.13 -99.35 24.69 -91.91 23.25 C-87.34 22.34 -82.99 20.88 -78.59 19.38 C-77.52 19.02 -77.52 19.02 -76.42 18.66 C-71.99 17.11 -68.64 15.16 -64.92 12.34 C-58.18 7.78 -49.13 6.89 -41.22 7.19 C-38.45 5.48 -38.45 5.48 -37.22 4.19 C-35.03 4.12 -32.84 4.11 -30.66 4.13 C-28.86 4.14 -28.86 4.14 -27.03 4.16 C-25.64 4.17 -25.64 4.17 -24.22 4.19 C-24.88 4.52 -25.54 4.85 -26.22 5.19 C-26.22 5.85 -26.22 6.51 -26.22 7.19 C-24.4 6.55 -22.59 5.9 -20.78 5.25 C-19.77 4.89 -18.76 4.53 -17.72 4.16 C-15.31 3.42 -15.31 3.42 -14.22 2.19 C-12.16 1.87 -10.1 1.68 -8.03 1.47 C-5.2 1.03 -3.21 0.04 0 0 Z " fill="#FAD709" transform="translate(953.218017578125,351.809814453125)"/>
<path d="M0 0 C2.42 3.63 2.88 7.04 3.56 11.25 C3.69 11.99 3.81 12.73 3.94 13.49 C4.52 16.93 5.05 20.37 5.51 23.83 C6.19 28.2 7.87 31.84 9.91 35.74 C12.67 41.03 14.68 46.44 16.62 52.06 C25.76 77.7 37.26 102.98 51.06 126.44 C51.87 127.8 51.87 127.8 52.69 129.2 C55.16 133.3 57.53 136.67 61 140 C62.05 141.79 63.04 143.6 64 145.44 C67.32 151.34 71.36 155.99 76.09 160.81 C80 164.82 80 164.82 80 167 C80.6 167.09 81.2 167.18 81.82 167.27 C84.58 168.2 85.22 169.28 86.81 171.69 C93.05 180.35 101.3 184.88 111 189 C111.99 189 112.98 189 114 189 C113.32 188.32 112.64 187.64 111.94 186.94 C108.63 183.63 105.31 180.31 102 177 C102.33 176.34 102.66 175.68 103 175 C100.71 172.54 98.89 170.94 95.88 169.38 C92.17 166.32 91.94 164.04 91.23 159.44 C91 157 91 157 91 153 C94.23 153.61 96.23 154.68 98.81 156.69 C99.51 157.23 100.21 157.77 100.93 158.33 C103.39 160.31 105.78 162.36 108.15 164.44 C110.21 166.18 112.35 167.81 114.5 169.44 C118.03 172.15 121.15 175.04 124.25 178.24 C128.83 182.85 133.88 187 139 191 C137.02 188.52 137.02 188.52 135 186 C136.67 186 138.33 186 140 186 C140 186.66 140 187.32 140 188 C142.84 189.57 142.84 189.57 146 190 C142.17 186.73 138.31 183.76 134.12 180.94 C122.52 173 111.17 164.74 101 155 C100.15 154.2 99.3 153.41 98.43 152.59 C91.58 146 91.58 146 91 142 C93.98 143.31 95.67 144.54 97.62 147.12 C100.93 151.19 104.85 154.17 109.02 157.3 C109.68 157.86 110.33 158.42 111 159 C111 159.66 111 160.32 111 161 C111.54 161.24 112.09 161.48 112.65 161.73 C115.56 163.3 118.01 165.23 120.62 167.25 C124.99 170.58 129.41 173.59 134.16 176.33 C136.45 177.68 138.69 179.06 140.93 180.48 C141.63 180.93 142.34 181.37 143.06 181.83 C144.44 182.71 145.82 183.6 147.2 184.49 C151.35 187.11 155.44 189.18 160 191 C160.66 190.34 161.32 189.68 162 189 C162.58 189.9 162.58 189.9 163.17 190.82 C178.82 209.42 226.51 212.58 248.62 214.53 C263.96 216.26 263.96 216.26 278.41 212.22 C282.24 210.42 286.24 209.41 290.31 208.31 C291.5 207.99 291.5 207.99 292.71 207.66 C296.13 206.74 299.56 205.85 303 205 C302.67 204.01 302.34 203.02 302 202 C300.84 201.93 300.84 201.93 299.66 201.85 C293.54 201.41 287.89 200.7 282 199 C282 199.66 282 200.32 282 201 C280.68 200.67 279.36 200.34 278 200 C279.28 196.05 280.43 194.14 284 192 C286.52 191.64 286.52 191.64 289.32 191.67 C290.33 191.68 291.34 191.68 292.38 191.69 C293.43 191.71 294.48 191.73 295.56 191.75 C296.62 191.76 297.67 191.76 298.76 191.77 C306.54 191.85 306.54 191.85 310 193 C312.06 193.22 314.12 193.41 316.19 193.56 C317.27 193.65 318.36 193.73 319.48 193.82 C320.31 193.88 321.14 193.94 322 194 C322.33 193.01 322.66 192.02 323 191 C328.94 191.99 328.94 191.99 335 193 C335 192.34 335 191.68 335 191 C336.04 191.24 336.04 191.24 337.1 191.48 C345.45 192.97 352.29 192.38 360 189 C363.47 188.61 366.93 188.43 370.42 188.25 C374.57 187.96 378.53 187.26 382.6 186.4 C385.11 185.98 387.46 185.93 390 186 C390 185.34 390 184.68 390 184 C390.66 184 391.32 184 392 184 C392 184.66 392 185.32 392 186 C394.38 185.74 396.75 185.47 399.12 185.19 C399.79 185.12 400.46 185.05 401.14 184.97 C405.67 184.42 409 183.13 413 181 C414.67 180.96 416.33 180.95 418 181 C418.66 180.34 419.32 179.68 420 179 C422.15 178.5 422.15 178.5 424.79 178.15 C425.73 178.02 426.67 177.89 427.64 177.76 C428.63 177.63 429.61 177.51 430.62 177.38 C431.62 177.24 432.61 177.11 433.63 176.97 C436.09 176.64 438.54 176.32 441 176 C440.67 174.35 440.34 172.7 440 171 C439.36 171.14 438.72 171.29 438.06 171.44 C427.74 173.65 427.74 173.65 423 173 C420.06 170.5 420.06 170.5 418 168 C420.07 163.96 421.76 161.75 426 160 C429.02 159.77 431.98 159.82 435 160 C435.33 159.34 435.66 158.68 436 158 C437.32 158.33 438.64 158.66 440 159 C439.67 161.31 439.34 163.62 439 166 C439.99 166.33 440.98 166.66 442 167 C442.6 166.55 443.2 166.09 443.81 165.62 C446.54 163.6 448.66 163.42 452 163 C453.34 162.67 454.67 162.34 456 162 C458.83 161.41 461.66 160.9 464.5 160.38 C465.26 160.23 466.02 160.08 466.8 159.93 C467.54 159.8 468.27 159.66 469.03 159.52 C469.7 159.4 470.36 159.27 471.05 159.15 C473.24 158.98 474.91 159.36 477 160 C475.42 160.48 473.83 160.96 472.25 161.44 C471.37 161.7 470.49 161.97 469.58 162.25 C467.39 162.88 465.21 163.47 463 164 C462.86 164.6 462.71 165.2 462.56 165.81 C462.11 167.56 461.57 169.29 461 171 C463.38 170.72 465.75 170.42 468.12 170.12 C468.79 170.05 469.46 169.97 470.14 169.89 C474.3 169.36 478.07 168.46 482 167 C482 166.34 482 165.68 482 165 C483.62 164.64 485.25 164.29 486.88 163.94 C487.78 163.74 488.68 163.54 489.62 163.34 C492 163 492 163 494 164 C494 163.34 494 162.68 494 162 C496.56 161.35 499.12 160.71 501.69 160.06 C502.41 159.88 503.13 159.7 503.87 159.51 C506.87 158.76 509.86 158.03 512.89 157.43 C515.04 157.09 515.04 157.09 517 156 C519.19 155.98 521.38 156.01 523.56 156.06 C531.69 156.12 538.38 154.74 546 152 C546 152.66 546 153.32 546 154 C549.44 153.19 552.88 152.38 556.31 151.56 C557.78 151.22 557.78 151.22 559.27 150.87 C560.21 150.64 561.15 150.42 562.11 150.19 C562.98 149.99 563.84 149.78 564.73 149.57 C566.51 149.12 568.26 148.58 570 148 C572.83 147.68 575.66 147.4 578.5 147.12 C589 146.13 589 146.13 599 143 C599.66 142.01 600.32 141.02 601 140 C601.99 140 602.98 140 604 140 C604 139.01 604 138.02 604 137 C601.73 137.41 599.46 137.83 597.19 138.25 C596.48 138.38 595.77 138.51 595.05 138.65 C590.99 139.41 586.95 140.21 582.92 141.09 C582.08 141.27 581.24 141.45 580.37 141.64 C578.74 142 577.11 142.36 575.47 142.73 C571.23 143.66 567.37 144.2 563 144 C564.32 143.34 565.64 142.68 567 142 C567 141.01 567 140.02 567 139 C591.16 134.35 615.39 130.22 639.81 127.19 C640.79 127.06 641.77 126.94 642.77 126.81 C648.45 126.14 653.98 125.91 659.69 126.06 C662.16 126.11 662.16 126.11 665 125 C674.86 123.89 684.76 123.91 694.67 124.04 C696.03 124.05 696.03 124.05 697.42 124.06 C698.64 124.08 698.64 124.08 699.88 124.1 C702.19 124.09 702.19 124.09 705 123 C729.15 122.23 754.58 125.17 778 131 C778.76 131.18 779.53 131.37 780.31 131.55 C814.72 139.82 848.68 154.18 876 177 C876.56 177.46 877.12 177.92 877.69 178.39 C892.67 190.73 907.04 204.29 918.66 219.88 C920.87 222.82 923.18 225.63 925.56 228.44 C934.12 238.84 941.04 250.5 948 262 C948.7 263.11 949.39 264.22 950.11 265.37 C973.55 303.08 988.89 345.79 1002 388 C1002.31 388.99 1002.63 389.98 1002.95 390.99 C1004.33 395.4 1005.39 399.49 1005.69 404.12 C1005.75 405.06 1005.82 405.99 1005.89 406.95 C1005.92 407.62 1005.96 408.3 1006 409 C1005.34 407.68 1004.68 406.36 1004 405 C1003.34 405 1002.68 405 1002 405 C1001.62 403.72 1001.62 403.72 1001.24 402.42 C1000.29 399.21 999.33 396 998.37 392.79 C997.96 391.41 997.55 390.03 997.15 388.65 C994.69 380.33 992.09 372.11 989 364 C987.67 367.99 988.67 369.77 989.99 373.75 C990.45 375.16 990.91 376.57 991.37 377.99 C991.61 378.73 991.86 379.48 992.11 380.25 C996.52 393.64 1000.54 407.11 1004.12 420.75 C1004.32 421.47 1004.51 422.19 1004.71 422.94 C1006.47 429.6 1008.12 436.15 1009 443 C1008.34 443 1007.68 443 1007 443 C1007 442.34 1007 441.68 1007 441 C1006.34 441 1005.68 441 1005 441 C1004.66 439.76 1004.31 438.52 1003.96 437.24 C1002.68 432.59 1001.38 427.94 1000.09 423.29 C999.54 421.28 998.98 419.28 998.43 417.28 C994.09 401.52 994.09 401.52 989 386 C989.3 386.9 989.59 387.79 989.9 388.71 C991.94 394.91 993.45 400.64 993.73 407.17 C993.82 407.78 993.91 408.38 994 409 C994.66 409.33 995.32 409.66 996 410 C996.6 412.48 996.6 412.48 997.06 415.62 C997.23 416.71 997.39 417.79 997.56 418.9 C997.7 419.92 997.85 420.95 998 422 C998.17 423.16 998.17 423.16 998.35 424.35 C998.57 425.9 998.79 427.45 999 429 C996.53 427.51 996.53 427.51 994 426 C994.25 427.14 994.51 428.27 994.77 429.45 C995.67 433.49 996.57 437.54 997.47 441.59 C997.95 443.77 998.44 445.96 998.93 448.14 C999.2 449.35 999.47 450.56 999.75 451.81 C999.99 452.89 1000.23 453.97 1000.48 455.08 C1000.96 457.8 1001.1 460.25 1001 463 C999.13 460.19 998.61 458.88 998 455.69 C997.84 454.86 997.67 454.03 997.5 453.18 C997.34 452.31 997.17 451.45 997 450.56 C996.67 448.85 996.34 447.15 996 445.44 C995.86 444.69 995.71 443.93 995.56 443.15 C994.97 440.9 994.04 439.07 993 437 C992.86 435.95 992.71 434.9 992.56 433.81 C991.42 426.08 988.79 419.19 984 413 C983.34 412.01 982.68 411.02 982 410 C982.25 410.98 982.5 411.97 982.75 412.98 C983.67 416.63 984.57 420.28 985.47 423.93 C985.86 425.52 986.26 427.1 986.66 428.67 C987.23 430.94 987.79 433.22 988.35 435.49 C988.53 436.19 988.71 436.9 988.89 437.63 C989.7 440.95 990.1 442.69 989 446 C981.67 439.48 979.42 431.63 977.12 422.31 C974.9 413.67 972.2 405.9 968 398 C967.67 398.33 967.34 398.66 967 399 C967.33 400.01 967.66 401.02 968 402.06 C969.07 405.75 969.16 409.15 969 413 C968.73 412.43 968.46 411.87 968.19 411.29 C966.94 408.88 965.52 406.68 964 404.44 C963.23 403.29 963.23 403.29 962.44 402.12 C961.96 401.42 961.49 400.72 961 400 C960.34 399.01 959.68 398.02 959 397 C959.29 398.1 959.58 399.19 959.88 400.32 C960.25 401.78 960.63 403.23 961 404.69 C961.29 405.77 961.29 405.77 961.58 406.87 C962.55 410.67 963.25 414.05 963 418 C960.48 414.95 959.09 412.05 957.73 408.34 C957.32 407.24 956.9 406.13 956.47 404.99 C955.63 402.7 954.78 400.4 953.94 398.1 C951.42 391.38 948.62 384.96 945.3 378.6 C944.12 376.24 943.15 373.91 942.25 371.44 C939.29 363.77 935.16 356.62 931.28 349.39 C930.07 347.14 928.89 344.88 927.71 342.61 C927.36 341.94 927 341.26 926.64 340.57 C925.69 338.74 924.74 336.92 923.79 335.1 C922.11 332.01 922.11 332.01 920.04 329.56 C917.5 326.37 915.68 322.96 913.75 319.38 C910.57 313.61 907.2 308.22 903.22 302.96 C901.5 300.67 899.85 298.36 898.22 296 C888.19 281.38 888.19 281.38 876.23 268.35 C874.28 266.21 874.31 263.8 874 261 C873.67 261.66 873.34 262.32 873 263 C871 262 869 261 867 260 C867.33 259.34 867.66 258.68 868 258 C866.99 255.16 865.31 253.13 863.38 250.88 C861 248 861 248 861 246 C861.66 246 862.32 246 863 246 C862.05 242.65 861.34 241.24 858.46 239.19 C857.44 238.65 856.42 238.12 855.38 237.56 C851.66 235.52 848.19 233.52 844.88 230.88 C840.61 227.53 835.9 225.27 831 223 C831.66 222.34 832.32 221.68 833 221 C836.15 222.31 839.29 223.62 842.44 224.94 C843.34 225.31 844.23 225.68 845.16 226.07 C846.01 226.43 846.87 226.78 847.75 227.15 C848.54 227.48 849.33 227.81 850.14 228.15 C852 229 852 229 853 230 C854.67 230.04 856.33 230.04 858 230 C855.65 226.08 853.36 225.16 849 224 C849.66 223.34 850.32 222.68 851 222 C850.51 221.6 850.01 221.2 849.5 220.79 C848.86 220.26 848.22 219.73 847.56 219.19 C846.92 218.67 846.29 218.14 845.63 217.61 C844 216 844 216 843 213 C838.3 210.04 833.58 208.43 828 209 C828 208.34 828 207.68 828 207 C825.55 206.26 823.11 205.53 820.66 204.8 C818.56 204.17 816.47 203.52 814.38 202.88 C807.73 201.15 801.38 200.91 794.56 200.88 C793.84 200.87 793.12 200.87 792.37 200.86 C788.9 200.56 788.9 200.56 786 202 C784.76 202.12 783.52 202.25 782.25 202.38 C778.46 202.79 776.26 204 773 206 C769.19 206.69 769.19 206.69 766 207 C766 206.34 766 205.68 766 205 C762.37 205 758.74 205 755 205 C755.99 205.66 756.98 206.32 758 207 C757.29 207.06 756.57 207.12 755.84 207.18 C752.89 207.44 749.95 207.72 747 208 C745.89 208.1 744.77 208.21 743.62 208.31 C733.48 210.14 733.48 210.14 724.59 214.95 C721.37 217.5 717.98 218.71 714.12 220 C713.38 220.26 712.63 220.51 711.86 220.78 C707.02 222.42 702.15 223.8 697.19 225.06 C689.86 226.94 681.91 229.02 675.81 233.67 C674 235 674 235 671.75 234.69 C670.88 234.35 670.88 234.35 670 234 C670.33 234.99 670.66 235.98 671 237 C657.7 244 657.7 244 653 244 C652.67 245.32 652.34 246.64 652 248 C651 248.06 650 248.13 648.98 248.19 C644.3 248.86 641.13 251.22 637.38 253.94 C632.35 257.51 627.88 260.04 622 262 C622 262.66 622 263.32 622 264 C613.59 267.96 613.59 267.96 605 272 C605 272.66 605 273.32 605 274 C606.98 273.34 608.96 272.68 611 272 C607.97 275.38 605.05 277.02 601 279 C599.17 280.33 597.38 281.7 595.61 283.11 C594.81 283.55 594.81 283.55 594 284 C593.01 283.67 592.02 283.34 591 283 C592.65 282.34 594.3 281.68 596 281 C596 280.34 596 279.68 596 279 C592.7 280.32 589.4 281.64 586 283 C586 282.34 586 281.68 586 281 C584.68 281.59 583.37 282.2 582.06 282.81 C581.33 283.15 580.6 283.49 579.85 283.83 C577.67 284.94 577.67 284.94 577 288 C574.71 289.5 574.71 289.5 571.81 291 C570.82 291.52 569.82 292.04 568.8 292.57 C567.88 293.04 566.95 293.51 566 294 C564.85 294.62 563.69 295.24 562.5 295.88 C560 297 560 297 557 297 C555.71 288.57 555.71 288.57 557 284 C558.32 283.67 559.64 283.34 561 283 C560.67 281.35 560.34 279.7 560 278 C555.05 278 550.1 278 545 278 C544.67 279.32 544.34 280.64 544 282 C545.65 282.66 547.3 283.32 549 284 C550.64 301.98 550.64 301.98 546.84 306.66 C543.63 308.54 540.77 310 537 310 C533.72 305.93 532.79 301.15 533 296 C533.66 295.34 534.32 294.68 535 294 C535.66 289.17 535.99 284.54 533.31 280.38 C528.46 277.49 523.49 277.82 518 278 C516.64 279.14 516.64 279.14 516.89 282.14 C516.89 283.53 516.89 284.93 516.9 286.32 C516.9 287.05 516.91 287.78 516.91 288.53 C516.91 290.88 516.92 293.22 516.94 295.56 C516.94 297.15 516.95 298.73 516.95 300.32 C516.96 304.21 516.98 308.11 517 312 C518.98 312.66 520.96 313.32 523 314 C523 309.05 523 304.1 523 299 C523.99 298.67 524.98 298.34 526 298 C526.29 299.34 526.29 299.34 526.59 300.7 C526.85 301.87 527.11 303.04 527.38 304.25 C527.76 305.99 527.76 305.99 528.15 307.77 C528.86 310.46 529.63 312.6 531 315 C527.31 319.43 523.76 321.11 518.38 323.09 C515.71 324.11 513.41 325.49 511 327 C510.34 327 509.68 327 509 327 C508.91 327.6 508.83 328.21 508.74 328.83 C507.79 331.62 506.69 332.25 504.19 333.75 C503.16 334.39 503.16 334.39 502.11 335.05 C500 336 500 336 496 336 C496 336.66 496 337.32 496 338 C495.34 338 494.68 338 494 338 C493.67 338.66 493.34 339.32 493 340 C492.52 338.58 492.04 337.17 491.56 335.75 C491.3 334.96 491.03 334.17 490.75 333.36 C490.08 331.26 489.53 329.13 489 327 C484.71 327 480.42 327 476 327 C474.51 335.42 474.51 335.42 473 344 C472.01 344.33 471.02 344.66 470 345 C470.33 345.66 470.66 346.32 471 347 C471.33 347.66 471.66 348.32 472 349 C470.78 352.67 469.31 353.14 465.98 354.86 C465.31 355.19 464.63 355.53 463.94 355.88 C462.57 356.58 461.2 357.28 459.84 357.99 C459.18 358.33 458.52 358.67 457.83 359.03 C454.43 360.83 451.22 362.9 448 365 C445.75 362.95 445 361.99 444 359 C445.62 356.96 447.29 354.96 449 353 C450.88 347.35 451.02 340.43 449.32 334.7 C447.07 330.35 444.47 328.66 440 327 C436.05 326.62 432.15 326.67 428.19 326.75 C427.13 326.76 426.06 326.76 424.97 326.77 C420.14 326.37 420.14 326.37 416 328 C415.88 329.5 415.82 331.01 415.79 332.52 C415.77 333.48 415.75 334.44 415.73 335.43 C415.72 336.48 415.7 337.52 415.68 338.6 C415.66 339.66 415.64 340.73 415.62 341.82 C415.56 345.24 415.5 348.65 415.44 352.06 C415.39 354.37 415.35 356.68 415.31 358.99 C415.2 364.66 415.1 370.33 415 376 C414.01 376.33 413.02 376.66 412 377 C411.67 377.99 411.34 378.98 411 380 C410.01 380.33 409.02 380.66 408 381 C408 380.34 408 379.68 408 379 C405.03 380.49 405.03 380.49 402 382 C398.35 377.5 396.72 372.52 394.75 367.12 C394.37 366.14 394 365.16 393.61 364.15 C389.94 354.16 392.34 348.64 396.5 339.19 C396.92 338.22 397.33 337.26 397.76 336.26 C400.85 329.15 400.85 329.15 402 328 C399.48 326.74 397.69 326.9 394.88 326.94 C393.51 326.95 393.51 326.95 392.12 326.96 C391.07 326.98 391.07 326.98 390 327 C389.74 327.81 389.49 328.61 389.23 329.45 C387.77 333.66 386.09 337.76 384.38 341.88 C383.89 343.05 383.89 343.05 383.39 344.25 C382.6 346.17 381.8 348.08 381 350 C380.67 350 380.34 350 380 350 C378.85 345.26 378.67 340.54 378.44 335.69 C378.39 334.85 378.35 334.02 378.31 333.15 C378.2 331.1 378.1 329.05 378 327 C376.35 326.97 374.71 326.95 373.06 326.94 C371.69 326.92 371.69 326.92 370.29 326.9 C368.03 326.74 368.03 326.74 367 328 C366.91 329.81 366.88 331.62 366.89 333.44 C366.89 335.18 366.89 335.18 366.89 336.96 C366.89 338.22 366.9 339.48 366.9 340.79 C366.9 342.07 366.91 343.36 366.91 344.68 C366.91 348.11 366.92 351.53 366.93 354.96 C366.94 358.45 366.95 361.94 366.95 365.43 C366.96 372.29 366.98 379.14 367 386 C370.96 386.33 374.92 386.66 379 387 C378.98 385.29 378.95 383.58 378.93 381.82 C378.91 379.59 378.89 377.36 378.88 375.12 C378.86 374 378.84 372.87 378.82 371.71 C378.82 370.63 378.81 369.55 378.8 368.45 C378.79 367.45 378.78 366.46 378.77 365.43 C379 363 379 363 381 361 C384.3 368.66 387.24 376.36 389.89 384.26 C390.7 387.12 390.7 387.12 393 388 C393 388.66 393 389.32 393 390 C392.07 390.1 391.14 390.21 390.19 390.31 C387.05 390.68 387.05 390.68 385.62 392.44 C383.48 394.5 381.36 394.59 378.53 395.2 C373.97 396.65 369.9 399.18 365.76 401.54 C363 403 363 403 361 403 C360.67 403.66 360.34 404.32 360 405 C355.98 407.34 352.54 408.26 348 409 C347.67 409.66 347.34 410.32 347 411 C345.34 411.37 343.67 411.7 342 412 C340.13 412.64 338.26 413.33 336.41 414.04 C334.79 414.66 334.79 414.66 333.13 415.29 C331.97 415.73 330.82 416.17 329.62 416.62 C315.84 421.81 301.89 426.21 287.72 430.21 C286.53 430.55 285.35 430.9 284.12 431.25 C283.14 431.52 282.15 431.8 281.13 432.08 C280.43 432.38 279.73 432.69 279 433 C278.67 433.99 278.34 434.98 278 436 C275.93 437.17 275.93 437.17 273.44 438.19 C272.61 438.53 271.78 438.88 270.93 439.23 C270.3 439.48 269.66 439.74 269 440 C271.71 438.65 274.01 438.93 277 439 C276.46 439.27 275.91 439.54 275.36 439.81 C272.66 441.17 269.98 442.58 267.31 444 C266.34 444.52 265.37 445.03 264.36 445.56 C261.89 446.78 261.89 446.78 261 449 C263.64 448.67 266.28 448.34 269 448 C265.09 450.61 261.77 450.29 257.24 450.27 C256.37 450.27 255.51 450.27 254.62 450.27 C252.79 450.27 250.95 450.27 249.12 450.26 C246.34 450.25 243.56 450.26 240.78 450.27 C238.99 450.27 237.21 450.27 235.43 450.27 C234.6 450.27 233.78 450.27 232.93 450.28 C226.55 450.23 221.09 449.12 215.06 446.94 C212.43 446.13 210.62 445.89 207.94 445.75 C202.44 445.25 197.97 442.87 193.05 440.47 C190.72 439.34 188.52 438.43 186.06 437.62 C179.65 435.37 173.83 431.45 168 428 C168 428.66 168 429.32 168 430 C165.69 429.34 163.38 428.68 161 428 C161.33 428.99 161.66 429.98 162 431 C161.11 430.69 160.23 430.38 159.31 430.06 C155.44 428.82 152.06 428 148 428 C144.2 428 143.05 427.27 140 425 C137.85 422.43 135.9 419.75 134 417 C134.31 417.61 134.61 418.23 134.93 418.86 C135.95 420.91 136.98 422.95 138 425 C137.34 425.33 136.68 425.66 136 426 C130.12 421.25 130.12 421.25 129 419 C128.34 419.33 127.68 419.66 127 420 C127 419.34 127 418.68 127 418 C126.42 417.73 125.85 417.46 125.25 417.19 C122.97 415.98 121.05 414.57 119 413 C120.48 420.84 123.77 425.73 129.04 431.65 C131 434 131 434 132 437 C130.68 437 129.36 437 128 437 C127.67 436.34 127.34 435.68 127 435 C126.24 434.71 125.47 434.42 124.69 434.12 C120.15 432.22 118.41 429.83 116.25 425.44 C115 422 115 422 115 419 C114.34 419.33 113.68 419.66 113 420 C113.29 421.26 113.58 422.52 113.88 423.81 C114.04 424.52 114.2 425.23 114.37 425.96 C114.98 428.28 114.98 428.28 117 431 C117.31 432.09 117.62 433.19 117.94 434.31 C119.34 439.19 121.6 443.32 124.12 447.69 C126 451 126 451 127 454 C125.68 453.34 124.36 452.68 123 452 C123.33 452.99 123.66 453.98 124 455 C123.67 455.66 123.34 456.32 123 457 C121.68 456.01 120.36 455.02 119 454 C119.99 454.99 120.98 455.98 122 457 C121.67 457.99 121.34 458.98 121 460 C120.28 459.27 119.56 458.55 118.81 457.8 C117.06 456.05 115.29 454.32 113.5 452.61 C108.45 447.72 104.41 443.15 101 437 C100.67 437.33 100.34 437.66 100 438 C103.96 446.41 103.96 446.41 108 455 C103.71 453.57 100.53 452.34 96.69 450.19 C95.74 449.66 94.8 449.13 93.82 448.58 C92.89 448.06 91.96 447.54 91 447 C90.15 446.55 89.3 446.1 88.43 445.64 C84.36 443.47 81.07 441.51 78 438 C74.76 434.51 72.44 432.62 68 431 C59.91 426.35 54.86 419.39 51 411 C51 410.34 51 409.68 51 409 C50.34 409 49.68 409 49 409 C48.46 407.99 47.93 406.98 47.38 405.94 C45.38 402.39 42.96 399.53 40.17 396.58 C39 395 39 395 39 392 C43.82 394.04 47.67 397.29 50.86 401.39 C53.13 404.16 55.51 406.21 58.31 408.44 C62.61 411.88 66.84 415.39 71 419 C69.5 415.22 67.43 413.62 64.19 411.25 C58.39 406.68 54 401.42 49.5 395.58 C46.59 391.83 43.76 388.96 40 386 C38.16 383.56 38.16 383.56 36.62 381 C36.1 380.15 35.58 379.31 35.04 378.44 C34 376 34 376 34.53 374.07 C35.34 370.47 32.94 367.6 31.19 364.56 C30.45 363.25 29.71 361.94 28.98 360.63 C28.63 360.01 28.29 359.39 27.93 358.75 C26.77 356.57 25.85 354.33 25 352 C25.66 352.33 26.32 352.66 27 353 C27 353.66 27 354.32 27 355 C28.65 355 30.3 355 32 355 C31.86 354.24 31.71 353.48 31.56 352.7 C31.38 351.71 31.19 350.71 31 349.69 C30.81 348.7 30.63 347.72 30.44 346.7 C30 344 30 344 30 341 C29.21 339.05 29.21 339.05 28.12 337.06 C27.78 336.39 27.43 335.72 27.07 335.04 C26.37 333.7 25.65 332.37 24.93 331.05 C23.88 328.73 23.47 326.63 23.06 324.12 C22.3 319.97 20.93 316.77 19 313 C19.33 312.01 19.66 311.02 20 310 C19.53 308.33 19.06 306.66 18.53 305 C17.98 302.91 17.78 300.97 17.62 298.81 C17.17 293.82 15.56 289.39 13.84 284.7 C13 282 13 282 13 278 C13.66 278 14.32 278 15 278 C13.37 271.99 11.73 265.98 10 260 C10.99 259.67 11.98 259.34 13 259 C12.86 258.42 12.71 257.84 12.56 257.24 C11.49 252.73 10.76 248.67 11 244 C11.99 244.33 12.98 244.66 14 245 C14.33 245.99 14.66 246.98 15 248 C16.29 246.34 16.29 246.34 17 244 C16.09 241.13 16.09 241.13 14.44 238.12 C12.05 233.27 9.93 228.47 8.12 223.38 C7.72 222.23 7.31 221.08 6.88 219.9 C6 217 6 217 6 214 C6.66 214 7.32 214 8 214 C13.43 219.43 16.5 225.86 19.88 232.69 C20.22 233.38 20.57 234.08 20.93 234.8 C22.5 237.97 24.07 241.15 25.64 244.32 C27.08 247.22 28.54 250.11 30 253 C30.63 254.3 30.63 254.3 31.28 255.62 C37.9 268.57 47.69 279.91 57 291 C54.97 286.73 52.3 283.11 49.5 279.31 C49 278.62 48.5 277.93 47.99 277.22 C47.51 276.57 47.03 275.91 46.53 275.24 C45.87 274.34 45.87 274.34 45.21 273.43 C44.04 271.85 44.04 271.85 42 271 C42 270.01 42 269.02 42 268 C41.34 268 40.68 268 40 268 C39.38 266.51 39.38 266.51 38.75 265 C37.54 262.19 36.3 259.4 35 256.62 C34.69 255.96 34.38 255.29 34.06 254.6 C33.01 252.66 33.01 252.66 30 252 C29.91 251.18 29.83 250.36 29.74 249.51 C28.84 245.22 27.14 241.72 25.19 237.81 C22.44 232.29 20.13 226.76 18.07 220.94 C16.12 215.58 13.87 210.33 11.69 205.06 C-2.34 170.95 -2.34 170.95 -4.12 156.06 C-4.21 155.38 -4.3 154.69 -4.39 153.99 C-4.6 152.33 -4.8 150.66 -5 149 C-2.62 151.38 -2.54 152.49 -1.88 155.75 C7.39 194.48 27.39 242.67 55 272 C55 268.52 54.32 267.63 52.41 264.8 C51.87 263.98 51.34 263.16 50.78 262.32 C49.64 260.62 48.5 258.92 47.35 257.22 C44.16 252.35 42.29 248.85 42 243 C41.67 241.33 41.34 239.67 41 238 C40.45 234.92 40 232.13 40 229 C39.67 228.01 39.34 227.02 39 226 C39.66 226 40.32 226 41 226 C40.01 225.01 40.01 225.01 39 224 C38.67 224 38.34 224 38 224 C37.85 223.18 37.85 223.18 37.7 222.33 C36.56 216.55 34.69 211.63 32.06 206.38 C30.7 203.59 29.34 200.8 28 198 C27.7 197.37 27.39 196.74 27.08 196.08 C25.51 192.65 24.68 190.08 25 186.31 C25.27 177.26 22.08 168.9 18.91 160.55 C17.67 157.08 16.83 153.59 16 150 C15.67 149.01 15.34 148.02 15 147 C15.33 146.34 15.66 145.68 16 145 C16.35 139.67 15.46 135.74 13.62 130.75 C10.73 122.57 7.48 113.31 9.58 104.61 C10.13 101.22 9.51 98.65 8.75 95.31 C8.47 94.07 8.19 92.84 7.9 91.56 C7.15 88.6 6.32 85.72 5.38 82.81 C3.24 76.03 2.94 69.08 3 62 C4.01 64.02 5.02 66.03 6 68.06 C7.07 70.23 7.07 70.23 9 73 C9.33 73.99 9.66 74.98 10 76 C11.29 77.37 12.62 78.71 14 80 C13.71 79.01 13.42 78.02 13.12 77 C11.99 73.02 10.99 69.02 10 65 C13.24 65.91 14.67 66.43 16.39 69.4 C16.75 70.4 17.1 71.41 17.47 72.44 C17.89 73.57 18.31 74.7 18.74 75.86 C19.18 77.08 19.61 78.3 20.06 79.56 C21.01 82.13 21.98 84.68 22.96 87.23 C23.21 87.88 23.46 88.53 23.71 89.2 C29.44 104.07 36.9 118.35 44.57 132.3 C46 135 46 135 47 138 C47.9 138.37 47.9 138.37 48.81 138.75 C52.2 140.69 53.22 143.57 55 147 C51.89 140.65 48.61 134.41 45.14 128.25 C44 126 44 126 44 124 C43.01 123.67 42.02 123.34 41 123 C40.08 121.21 40.08 121.21 39.25 118.81 C37.66 114.55 35.82 110.55 33.75 106.5 C24.79 88.87 16.33 70.26 11.64 51.01 C10.73 48.16 8.91 46.28 7 44 C6.1 41.35 5.56 38.75 5 36 C4.34 36 3.68 36 3 36 C-1.09 27.03 -1.76 18.69 -2 9 C-1.34 9 -0.68 9 0 9 C0 8.01 0 7.02 0 6 C0 4 0 2 0 0 Z " fill="#015FC0" transform="translate(161,152)"/>
<path d="M0 0 C0.9 0.01 1.79 0.03 2.71 0.04 C4.06 0.05 4.06 0.05 5.44 0.06 C7.65 0.23 7.65 0.23 8.65 1.23 C8.86 4.21 9.03 7.18 9.15 10.17 C9.22 11.82 9.29 13.48 9.37 15.13 C9.4 15.87 9.43 16.61 9.46 17.37 C9.55 19.32 9.55 19.32 10.65 21.23 C10.91 20.63 11.18 20.03 11.45 19.41 C12.63 16.7 13.83 14 15.03 11.29 C15.44 10.35 15.85 9.4 16.28 8.43 C16.68 7.53 17.08 6.63 17.49 5.7 C17.85 4.87 18.22 4.04 18.6 3.18 C19.65 1.23 19.65 1.23 21.65 0.23 C29.12 -0.13 29.12 -0.13 32.65 2.23 C32.36 2.78 32.07 3.33 31.77 3.89 C29.07 9.11 26.56 14.41 24.21 19.79 C23.68 20.99 23.14 22.19 22.59 23.42 C20.66 31.25 24.35 38.56 27.28 45.79 C27.76 47.02 27.76 47.02 28.26 48.27 C29.05 50.26 29.85 52.25 30.65 54.23 C33.51 54.35 33.51 54.35 35.65 53.73 C37.65 53.23 37.65 53.23 40.65 53.23 C42.84 51.65 43.56 50.73 44.04 48.06 C44.04 47.22 44.05 46.38 44.05 45.52 C44.07 44.56 44.08 43.61 44.09 42.62 C44.09 41.6 44.09 40.57 44.09 39.51 C44.11 38.45 44.12 37.39 44.13 36.31 C44.17 32.93 44.2 29.55 44.21 26.17 C44.24 22.78 44.27 19.4 44.31 16.02 C44.33 13.91 44.35 11.81 44.35 9.7 C44.36 8.75 44.37 7.8 44.38 6.82 C44.39 5.98 44.39 5.14 44.39 4.27 C44.65 2.23 44.65 2.23 46.65 0.23 C50.38 -0.23 54.15 -0.09 57.9 -0.08 C59.46 -0.11 59.46 -0.11 61.05 -0.13 C66.64 -0.13 70.87 -0.02 75.65 3.23 C79.98 7.91 80.82 11.33 80.9 17.61 C80.93 18.73 80.95 19.85 80.98 21 C80.52 25.5 78.61 28.04 75.83 31.5 C74.02 35.7 75.46 38.77 76.84 42.98 C77.31 44.52 77.79 46.05 78.26 47.59 C78.49 48.35 78.73 49.1 78.97 49.88 C80.06 53.63 80.85 57.42 81.65 61.23 C77.69 61.23 73.73 61.23 69.65 61.23 C67.58 56.61 65.95 52.13 64.65 47.23 C62.67 47.89 60.69 48.55 58.65 49.23 C58.32 53.19 57.99 57.15 57.65 61.23 C49.25 61.52 49.25 61.52 46.65 61.23 C45.99 60.24 45.33 59.25 44.65 58.23 C34.03 63.24 23.43 68.28 12.84 73.36 C11.23 74.12 11.23 74.12 9.6 74.91 C3.94 77.63 -1.69 80.39 -7.29 83.23 C-12.53 85.88 -17.84 88.19 -23.35 90.23 C-23.68 89.57 -24.01 88.91 -24.35 88.23 C-23.69 88.23 -23.03 88.23 -22.35 88.23 C-21.85 87.24 -21.85 87.24 -21.35 86.23 C-20.36 85.74 -20.36 85.74 -19.35 85.23 C-18.69 85.56 -18.03 85.89 -17.35 86.23 C-16.85 85.24 -16.85 85.24 -16.35 84.23 C-14.13 82.91 -14.13 82.91 -11.41 81.54 C-10.51 81.09 -9.62 80.63 -8.7 80.16 C-7.53 79.7 -7.53 79.7 -6.35 79.23 C-5.69 79.56 -5.03 79.89 -4.35 80.23 C-4.02 79.57 -3.69 78.91 -3.35 78.23 C-1.01 77.56 1.32 76.9 3.65 76.23 C3.98 75.57 4.31 74.91 4.65 74.23 C6.28 73.21 6.28 73.21 8.36 72.14 C9.11 71.75 9.86 71.36 10.64 70.95 C11.43 70.55 12.21 70.15 13.03 69.73 C14.58 68.93 16.13 68.13 17.68 67.32 C18.71 66.79 18.71 66.79 19.77 66.25 C21.88 65.14 21.88 65.14 24.65 63.23 C23.88 63.02 23.1 62.8 22.31 62.58 C18.78 60.79 18.45 59.27 17.2 55.57 C16.81 54.44 16.42 53.32 16.01 52.17 C15.63 50.99 15.24 49.82 14.84 48.61 C14.43 47.42 14.03 46.24 13.61 45.02 C12.61 42.1 11.62 39.17 10.65 36.23 C8.94 37.94 9.42 40.23 9.34 42.58 C9.27 44.2 9.27 44.2 9.21 45.85 C9.17 46.99 9.13 48.12 9.09 49.29 C9.03 51 9.03 51 8.96 52.75 C8.85 55.58 8.75 58.4 8.65 61.23 C6.67 61.26 4.69 61.28 2.71 61.29 C1.61 61.3 0.51 61.32 -0.62 61.33 C-3.35 61.23 -3.35 61.23 -4.35 60.23 C-4.45 58.43 -4.49 56.63 -4.49 54.82 C-4.5 53.67 -4.51 52.52 -4.51 51.33 C-4.51 50.07 -4.51 48.81 -4.52 47.52 C-4.52 46.23 -4.52 44.95 -4.53 43.63 C-4.53 40.92 -4.53 38.2 -4.53 35.48 C-4.53 32 -4.55 28.51 -4.56 25.03 C-4.58 21.71 -4.58 18.4 -4.58 15.08 C-4.59 13.82 -4.59 12.57 -4.6 11.27 C-4.6 10.12 -4.59 8.96 -4.59 7.77 C-4.59 6.74 -4.59 5.72 -4.59 4.67 C-4.25 1.32 -3.37 0.33 0 0 Z " fill="#FAFCFE" transform="translate(531.34765625,477.76953125)"/>
<path d="M0 0 C0.99 0.33 1.98 0.66 3 1 C0.69 5.99 -2.59 10.64 -7.44 13.38 C-12.54 16.61 -16.69 22.09 -18.5 27.88 C-19.25 31.02 -19.25 31.02 -18 34 C-17.34 33.34 -16.68 32.68 -16 32 C-15.34 33.32 -14.68 34.64 -14 36 C-13.59 34.89 -13.18 33.77 -12.75 32.62 C-11.64 30.01 -11.25 29.17 -8.81 27.56 C-8.21 27.38 -7.62 27.19 -7 27 C-7.09 25.61 -7.09 25.61 -7.19 24.19 C-7 21 -7 21 -5.69 19.12 C-4 18 -4 18 -1 18 C1 21 1 21 1 25 C7.15 24.63 9.69 23.1 14 19 C14.51 21.55 15.01 24.05 15.31 26.62 C16.17 29.6 17.41 30.41 20 32 C19.01 32.99 18.02 33.98 17 35 C17.99 37.48 17.99 37.48 19 40 C20.49 40.09 20.49 40.09 23.19 38 C26.67 35.97 28.96 35.92 33 36 C35.45 35.17 37.66 34.12 40 33 C42.5 34.62 42.5 34.62 45 37 C45.78 41 45.18 42.68 43.19 46.25 C40.34 49.83 38.07 51.15 33.69 52 C30.02 52.76 26.53 53.73 23 55 C23 55.66 23 56.32 23 57 C21.35 57 19.7 57 18 57 C18 56.01 18 55.02 18 54 C18.66 53.67 19.32 53.34 20 53 C19.01 51.02 18.02 49.04 17 47 C16.01 47 15.02 47 14 47 C13.96 47.76 13.92 48.53 13.88 49.31 C13 52 13 52 10.06 53.62 C9.05 54.08 8.04 54.53 7 55 C6.34 55.99 5.68 56.98 5 58 C-1.84 60.2 -7.79 61.3 -14.44 58 C-15.63 57.35 -16.82 56.68 -18 56 C-18.08 56.76 -18.17 57.53 -18.25 58.31 C-19.15 61.52 -20.22 62.29 -23 64 C-22.2 64.29 -21.39 64.58 -20.56 64.88 C-18 66 -18 66 -17 68 C-19.81 68.62 -19.81 68.62 -23 69 C-23.99 68.34 -24.98 67.68 -26 67 C-29.82 67.25 -32.88 67.5 -36.38 69.06 C-41.64 70.94 -47.61 70.83 -52.81 68.75 C-58.71 65.51 -62.73 62.24 -64.71 55.64 C-65.25 50.79 -62.39 47.07 -60 43 C-59.58 42.27 -59.15 41.54 -58.71 40.79 C-54.72 34.72 -49.39 32.15 -43 29 C-42.01 28.34 -41.02 27.68 -40 27 C-39.67 27.33 -39.34 27.66 -39 28 C-35.58 28.42 -35.58 28.42 -32 28 C-30.02 26.14 -30.02 26.14 -29 24 C-28.01 24.33 -27.02 24.66 -26 25 C-25.01 24.67 -24.02 24.34 -23 24 C-22.01 24 -21.02 24 -20 24 C-19.94 23.22 -19.88 22.43 -19.81 21.62 C-19.54 20.76 -19.28 19.89 -19 19 C-17.34 18.31 -15.67 17.65 -14 17 C-12.75 15.55 -11.49 14.1 -10.33 12.58 C-8.95 10.94 -7.51 9.74 -5.81 8.44 C-2.96 5.97 -2.08 4.53 -1 1 C-0.67 0.67 -0.34 0.34 0 0 Z " fill="#005FC1" transform="translate(427,280)"/>
<path d="M0 0 C0.9 0.01 1.79 0.03 2.71 0.04 C4.06 0.05 4.06 0.05 5.44 0.06 C7.65 0.23 7.65 0.23 8.65 1.23 C8.86 4.21 9.03 7.18 9.15 10.17 C9.22 11.82 9.29 13.48 9.37 15.13 C9.4 15.87 9.43 16.61 9.46 17.37 C9.55 19.32 9.55 19.32 10.65 21.23 C10.91 20.63 11.18 20.03 11.45 19.41 C12.63 16.7 13.83 14 15.03 11.29 C15.44 10.35 15.85 9.4 16.28 8.43 C16.88 7.08 16.88 7.08 17.49 5.7 C17.85 4.87 18.22 4.04 18.6 3.18 C19.65 1.23 19.65 1.23 21.65 0.23 C29.12 -0.13 29.12 -0.13 32.65 2.23 C32.36 2.78 32.07 3.33 31.77 3.89 C29.07 9.11 26.56 14.41 24.21 19.79 C23.41 21.59 23.41 21.59 22.59 23.42 C20.67 31.22 24.31 38.37 27.28 45.54 C27.92 47.1 28.56 48.66 29.19 50.22 C29.47 50.89 29.75 51.57 30.04 52.27 C30.65 54.23 30.65 54.23 30.65 58.23 C31.31 58.23 31.97 58.23 32.65 58.23 C33.15 60.21 33.15 60.21 33.65 62.23 C32.07 62.26 30.49 62.28 28.9 62.29 C28.02 62.3 27.14 62.32 26.23 62.33 C21.85 62.16 21.85 62.16 19.65 61.23 C18.37 58.82 18.37 58.82 17.29 55.66 C16.7 53.98 16.7 53.98 16.1 52.26 C15.71 51.07 15.31 49.89 14.9 48.67 C14.49 47.48 14.08 46.29 13.66 45.07 C12.64 42.13 11.64 39.18 10.65 36.23 C8.94 37.94 9.42 40.23 9.34 42.58 C9.29 43.66 9.25 44.74 9.21 45.85 C9.17 46.99 9.13 48.12 9.09 49.29 C9.05 50.43 9 51.57 8.96 52.75 C8.85 55.58 8.75 58.4 8.65 61.23 C6.67 61.26 4.69 61.28 2.71 61.29 C1.61 61.3 0.51 61.32 -0.62 61.33 C-3.35 61.23 -3.35 61.23 -4.35 60.23 C-4.45 58.43 -4.49 56.63 -4.49 54.82 C-4.5 53.67 -4.51 52.52 -4.51 51.33 C-4.51 50.07 -4.51 48.81 -4.52 47.52 C-4.52 46.23 -4.52 44.95 -4.53 43.63 C-4.53 40.92 -4.53 38.2 -4.53 35.48 C-4.53 32 -4.55 28.51 -4.56 25.03 C-4.58 21.71 -4.58 18.4 -4.58 15.08 C-4.59 13.82 -4.59 12.57 -4.6 11.27 C-4.6 10.12 -4.59 8.96 -4.59 7.77 C-4.59 6.74 -4.59 5.72 -4.59 4.67 C-4.25 1.32 -3.37 0.33 0 0 Z " fill="#F9FCFE" transform="translate(531.34765625,477.76953125)"/>
<path d="M0 0 C1.67 0.06 1.67 0.06 3.38 0.12 C6.88 6.85 9.99 13.7 12.96 20.68 C14.26 23.69 15.55 26.38 17.38 29.12 C17.36 28.32 17.35 27.51 17.34 26.68 C17.3 23.04 17.28 19.39 17.25 15.75 C17.23 14.48 17.22 13.21 17.2 11.9 C17.19 10.69 17.19 9.48 17.18 8.23 C17.17 7.11 17.16 5.99 17.15 4.83 C17.38 2.12 17.38 2.12 19.38 0.12 C22.94 -0.06 22.94 -0.06 26.38 0.12 C27.38 1.12 27.38 1.12 27.5 3.52 C27.49 4.59 27.49 5.65 27.49 6.75 C27.49 7.95 27.49 9.15 27.49 10.39 C27.48 11.69 27.48 13 27.47 14.35 C27.47 15.69 27.47 17.04 27.47 18.38 C27.46 21.92 27.45 25.46 27.44 29.01 C27.43 32.62 27.43 36.23 27.42 39.85 C27.41 46.94 27.4 54.03 27.38 61.12 C20.95 61.49 20.95 61.49 18.61 60.01 C16.92 57.43 15.82 54.79 14.68 51.93 C14.24 50.84 13.8 49.75 13.34 48.63 C12.8 47.24 12.25 45.86 11.69 44.44 C9.93 40.04 8.18 35.65 6.38 31.12 C6.04 41.02 5.72 50.92 5.38 61.12 C2.08 61.12 -1.23 61.12 -4.62 61.12 C-6.35 59.4 -5.76 57.07 -5.77 54.72 C-5.78 53.56 -5.78 52.41 -5.79 51.22 C-5.79 49.96 -5.79 48.71 -5.79 47.41 C-5.8 46.13 -5.8 44.85 -5.8 43.53 C-5.81 40.81 -5.81 38.1 -5.81 35.38 C-5.81 31.89 -5.82 28.41 -5.84 24.92 C-5.85 21.61 -5.85 18.29 -5.86 14.97 C-5.86 13.72 -5.87 12.46 -5.88 11.17 C-5.87 10.01 -5.87 8.85 -5.87 7.66 C-5.87 6.64 -5.87 5.61 -5.87 4.56 C-5.45 0.36 -4.07 0.14 0 0 Z " fill="#FAFDFF" transform="translate(710.625,477.875)"/>
<path d="M0 0 C0.8 0.01 1.61 0.03 2.43 0.04 C3.64 0.05 3.64 0.05 4.88 0.06 C6.87 0.23 6.87 0.23 7.87 1.23 C7.99 2.79 8.05 4.36 8.08 5.93 C8.1 6.93 8.12 7.94 8.14 8.97 C8.15 10.06 8.17 11.14 8.19 12.27 C8.21 13.37 8.23 14.48 8.25 15.62 C8.32 19.18 8.37 22.74 8.43 26.29 C8.48 28.7 8.52 31.1 8.56 33.51 C8.67 39.41 8.77 45.32 8.87 51.23 C11.51 51.56 14.15 51.89 16.87 52.23 C18.07 49.83 18.01 48.3 18.04 45.63 C18.06 44.67 18.07 43.72 18.09 42.74 C18.1 41.7 18.11 40.67 18.12 39.61 C18.15 37.43 18.18 35.26 18.22 33.09 C18.26 29.65 18.31 26.22 18.35 22.78 C18.39 19.47 18.44 16.16 18.49 12.86 C18.5 11.82 18.51 10.79 18.52 9.72 C18.53 8.77 18.55 7.82 18.57 6.83 C18.58 5.99 18.59 5.15 18.6 4.28 C18.87 2.23 18.87 2.23 20.87 0.23 C23 0 23 0 25.43 0.04 C26.64 0.05 26.64 0.05 27.88 0.06 C29.87 0.23 29.87 0.23 30.87 1.23 C30.98 2.76 31.02 4.29 31.03 5.82 C31.04 6.8 31.05 7.78 31.06 8.79 C31.07 9.85 31.07 10.92 31.07 12.02 C31.08 13.11 31.09 14.2 31.09 15.33 C31.1 17.65 31.11 19.97 31.11 22.28 C31.12 25.82 31.15 29.35 31.18 32.89 C31.19 35.14 31.2 37.39 31.2 39.64 C31.21 40.7 31.22 41.75 31.24 42.84 C31.22 48.76 30.75 53.02 27.87 58.23 C23.24 62.72 17.77 62.51 11.63 62.45 C6.73 62.06 3.4 60.47 -0.44 57.36 C-3.43 53.6 -4.38 50.04 -4.39 45.29 C-4.39 44.33 -4.4 43.38 -4.41 42.4 C-4.4 41.38 -4.4 40.36 -4.39 39.31 C-4.4 37.73 -4.4 37.73 -4.4 36.12 C-4.4 33.9 -4.4 31.68 -4.39 29.46 C-4.38 26.04 -4.39 22.64 -4.4 19.22 C-4.4 17.07 -4.4 14.91 -4.39 12.75 C-4.4 11.73 -4.4 10.7 -4.41 9.65 C-4.4 8.7 -4.39 7.76 -4.39 6.78 C-4.39 5.95 -4.38 5.12 -4.38 4.26 C-4.01 1.28 -2.97 0.32 0 0 Z " fill="#FAFDFF" transform="translate(480.12890625,477.76953125)"/>
<path d="M0 0 C0.99 0.03 1.99 0.05 3.01 0.08 C4.15 0.13 4.15 0.13 5.31 0.19 C6.77 3.6 7.76 6.83 8.46 10.47 C8.66 11.49 8.86 12.52 9.06 13.58 C9.38 15.23 9.38 15.23 9.7 16.91 C10.02 18.62 10.02 18.62 10.36 20.36 C10.82 22.76 11.28 25.16 11.74 27.56 C12.44 31.24 13.15 34.92 13.86 38.6 C14.3 40.93 14.75 43.26 15.2 45.6 C15.41 46.7 15.62 47.8 15.84 48.93 C16.03 49.96 16.23 50.98 16.43 52.04 C16.6 52.94 16.77 53.84 16.95 54.77 C17.31 57.19 17.31 57.19 17.31 61.19 C15.69 61.24 14.06 61.28 12.44 61.31 C11.08 61.35 11.08 61.35 9.7 61.38 C7.31 61.19 7.31 61.19 5.31 59.19 C4.68 56.37 4.68 56.37 4.19 53.06 C4.02 51.97 3.85 50.87 3.68 49.74 C3.56 48.9 3.44 48.06 3.31 47.19 C-0.12 47.45 -0.12 47.45 -3.69 48.19 C-5.69 51.19 -6.18 52.9 -6.81 56.38 C-7.1 57.96 -7.39 59.55 -7.69 61.19 C-11.32 61.19 -14.95 61.19 -18.69 61.19 C-18.24 53.69 -17.09 46.43 -15.69 39.06 C-15.51 38.11 -15.33 37.16 -15.15 36.19 C-14.98 35.3 -14.8 34.41 -14.62 33.49 C-14.47 32.69 -14.31 31.88 -14.15 31.05 C-13.69 29.19 -13.69 29.19 -12.69 28.19 C-13.35 27.53 -14.01 26.87 -14.69 26.19 C-14.03 26.19 -13.37 26.19 -12.69 26.19 C-12.69 24.87 -12.69 23.55 -12.69 22.19 C-13.35 21.86 -14.01 21.53 -14.69 21.19 C-13.99 20.68 -13.99 20.68 -13.28 20.16 C-10.98 17.32 -10.73 14.2 -10.19 10.69 C-9.14 3.9 -9.14 3.9 -7.45 1.23 C-4.91 -0.27 -2.92 -0.1 0 0 Z " fill="#FAFCFE" transform="translate(644.6875,477.8125)"/>
<path d="M0 0 C0.95 0 1.89 0.01 2.87 0.01 C3.9 0.01 4.92 0.02 5.98 0.02 C7.06 0.03 8.13 0.04 9.24 0.06 C10.32 0.06 11.4 0.06 12.51 0.06 C20.54 0.1 20.54 0.1 21.68 1.24 C21.72 3.58 21.72 5.91 21.68 8.24 C20.82 8.3 19.97 8.36 19.09 8.43 C17.98 8.51 16.88 8.59 15.74 8.68 C14.64 8.76 13.54 8.84 12.4 8.93 C9.77 8.95 9.77 8.95 8.68 10.24 C8.6 12.6 8.59 14.95 8.61 17.31 C8.62 18.6 8.63 19.89 8.64 21.22 C8.65 22.21 8.67 23.21 8.68 24.24 C9.63 24.33 9.63 24.33 10.61 24.43 C11.44 24.51 12.26 24.59 13.11 24.68 C14.35 24.8 14.35 24.8 15.61 24.93 C17.68 25.24 17.68 25.24 18.68 26.24 C18.72 28.58 18.72 30.91 18.68 33.24 C18.04 33.3 17.4 33.36 16.74 33.43 C15.92 33.51 15.09 33.59 14.24 33.68 C13.42 33.76 12.59 33.84 11.74 33.93 C9.69 34.03 9.69 34.03 8.68 35.24 C8.6 38.11 8.59 40.94 8.61 43.81 C8.62 44.61 8.62 45.42 8.63 46.25 C8.64 48.25 8.66 50.24 8.68 52.24 C9.53 52.3 10.39 52.36 11.27 52.43 C12.37 52.51 13.48 52.59 14.61 52.68 C15.72 52.76 16.82 52.84 17.95 52.93 C20.68 53.24 20.68 53.24 21.68 54.24 C21.72 56.58 21.72 58.91 21.68 61.24 C17.53 61.27 13.39 61.29 9.24 61.31 C7.46 61.32 7.46 61.32 5.65 61.33 C4.53 61.33 3.4 61.34 2.24 61.34 C0.68 61.35 0.68 61.35 -0.91 61.36 C-3.32 61.24 -3.32 61.24 -4.32 60.24 C-4.43 58.44 -4.46 56.64 -4.47 54.84 C-4.47 53.68 -4.48 52.53 -4.49 51.34 C-4.49 50.08 -4.49 48.82 -4.49 47.53 C-4.49 46.25 -4.5 44.97 -4.5 43.65 C-4.51 40.93 -4.51 38.21 -4.51 35.5 C-4.51 32.01 -4.52 28.53 -4.54 25.04 C-4.55 21.72 -4.55 18.41 -4.55 15.09 C-4.56 13.84 -4.57 12.58 -4.57 11.29 C-4.57 10.13 -4.57 8.97 -4.57 7.78 C-4.57 6.76 -4.57 5.73 -4.57 4.68 C-4.23 1.35 -3.35 0.35 0 0 Z " fill="#FAFDFF" transform="translate(759.322509765625,477.757080078125)"/>
<path d="M0 0 C4.01 3.36 5.52 5.81 6.12 11.06 C6.14 12.46 6.14 13.85 6.12 15.25 C6.15 16.3 6.15 16.3 6.19 17.37 C6.18 23.79 3.63 26.3 -0.69 30.62 C-6.53 33.24 -12.13 32.49 -18.31 31.25 C-22.35 29.57 -24.69 27.12 -27.25 23.56 C-29.01 18.06 -28.93 12.78 -27.56 7.19 C-26.31 5.25 -26.31 5.25 -24.19 4.44 C-23.57 4.38 -22.95 4.31 -22.31 4.25 C-21.98 2.6 -21.65 0.95 -21.31 -0.75 C-13.58 -2.67 -7.34 -3.88 0 0 Z " fill="#FBD809" transform="translate(943.3125,644.75)"/>
<path d="M0 0 C1.11 -0.04 2.23 -0.08 3.38 -0.12 C8.53 1.48 10.5 4.47 13.45 8.88 C15.83 13.68 16.03 17.78 15 23 C13.62 26.19 13.62 26.19 12 28 C11.34 28 10.68 28 10 28 C9.01 30.48 9.01 30.48 8 33 C6.27 33.17 4.54 33.34 2.81 33.5 C1.85 33.59 0.89 33.69 -0.11 33.78 C-1.54 33.89 -1.54 33.89 -3 34 C-3.84 34.07 -4.68 34.15 -5.54 34.23 C-10.53 33.77 -14.34 30.2 -18 27 C-21.11 21.92 -20.19 15.66 -19 10 C-14.67 2.62 -8.48 -1.63 0 0 Z " fill="#005FC1" transform="translate(291,284)"/>
<path d="M0 0 C0.9 0.01 1.79 0.03 2.71 0.04 C4.06 0.05 4.06 0.05 5.44 0.06 C7.65 0.23 7.65 0.23 8.65 1.23 C8.75 3.1 8.77 4.98 8.77 6.85 C8.77 8.05 8.77 9.25 8.77 10.49 C8.76 11.8 8.76 13.11 8.75 14.45 C8.75 15.8 8.75 17.14 8.75 18.48 C8.74 22.03 8.73 25.57 8.72 29.11 C8.71 32.73 8.71 36.34 8.7 39.95 C8.69 47.04 8.67 54.14 8.65 61.23 C6.67 61.26 4.69 61.28 2.71 61.29 C1.61 61.3 0.51 61.32 -0.62 61.33 C-3.35 61.23 -3.35 61.23 -4.35 60.23 C-4.45 58.43 -4.49 56.63 -4.49 54.82 C-4.5 53.67 -4.51 52.52 -4.51 51.33 C-4.51 50.07 -4.51 48.81 -4.52 47.52 C-4.52 46.23 -4.52 44.95 -4.53 43.63 C-4.53 40.92 -4.53 38.2 -4.53 35.48 C-4.53 32 -4.55 28.51 -4.56 25.03 C-4.58 21.71 -4.58 18.4 -4.58 15.08 C-4.59 13.82 -4.59 12.57 -4.6 11.27 C-4.6 10.12 -4.59 8.96 -4.59 7.77 C-4.59 6.74 -4.59 5.72 -4.59 4.67 C-4.25 1.32 -3.37 0.33 0 0 Z " fill="#FAFDFF" transform="translate(680.34765625,477.76953125)"/>
<path d="M0 0 C2.81 1.3 4.02 3.07 5.42 5.79 C6.92 10.15 6.72 14.57 6.62 19.13 C6.63 20.11 6.64 21.08 6.64 22.09 C6.59 27.7 6.35 31.84 2.18 36.01 C-3.01 36.54 -7.39 36.86 -11.94 34.13 C-15.8 29.76 -15.04 25.35 -15.07 19.76 C-15.09 18.82 -15.11 17.87 -15.13 16.9 C-15.16 11.51 -14.89 7.66 -11.82 3.01 C-8.09 -0.39 -4.78 -0.25 0 0 Z " fill="#FAFDFF" transform="translate(661.81640625,428.9921875)"/>
<path d="M0 0 C-0.39 2.82 -0.71 3.77 -3 5.56 C-3.66 6.04 -4.32 6.51 -5 7 C-5.33 7.99 -5.66 8.98 -6 10 C-5.34 10 -4.68 10 -4 10 C-4.43 11.42 -4.87 12.84 -5.31 14.25 C-5.56 15.04 -5.8 15.83 -6.05 16.64 C-7.11 19.27 -7.95 21.02 -10 23 C-12.81 23.32 -12.81 23.32 -16 23.12 C-20.81 22.76 -20.81 22.76 -25 25 C-27.05 25.09 -27.05 25.09 -29.31 24.94 C-32.64 24.85 -33.88 24.94 -36.94 26.5 C-41.16 28.57 -45.36 28.81 -50 28 C-51.8 26.48 -51.8 26.48 -53 25 C-51.26 18.89 -48.97 13.99 -43.5 10.5 C-40 9 -40 9 -37.75 9.56 C-36 11 -36 11 -34.5 12.62 C-32.85 14.45 -32.85 14.45 -29 14 C-28.34 12.68 -27.68 11.36 -27 10 C-26.29 10.21 -25.58 10.42 -24.85 10.63 C-21.33 11.09 -19.58 10.35 -16.38 8.88 C-15.43 8.46 -14.49 8.04 -13.52 7.62 C-10.62 5.75 -9.61 4.01 -8 1 C-5.04 -1.1 -3.39 -1.21 0 0 Z " fill="#005FC1" transform="translate(564,297)"/>
<path d="M0 0 C4.73 0.14 9.55 0.44 12.99 3.98 C14.63 6.79 14.68 8.64 14.62 11.88 C14.62 12.84 14.62 13.8 14.61 14.79 C14.31 17.25 14.31 17.25 12.31 19.25 C12.25 21.4 12.25 21.4 12.62 23.75 C12.77 24.94 12.77 24.94 12.93 26.16 C13.22 28.3 13.22 28.3 14.31 30.25 C14.35 32.25 14.36 34.25 14.31 36.25 C11.34 35.92 8.37 35.59 5.31 35.25 C5.64 34.59 5.97 33.93 6.31 33.25 C6.07 31.2 5.74 29.16 5.38 27.12 C5.08 25.48 5.08 25.48 4.79 23.8 C4.55 22.54 4.55 22.54 4.31 21.25 C3.65 21.58 2.99 21.91 2.31 22.25 C2.31 27.2 2.31 32.15 2.31 37.25 C-0.32 37.25 -2.19 37 -4.69 36.25 C-6.63 34.31 -5.85 30.65 -5.86 28 C-5.86 27.28 -5.86 26.55 -5.87 25.8 C-5.87 24.26 -5.87 22.72 -5.87 21.19 C-5.87 18.83 -5.89 16.47 -5.91 14.11 C-5.92 12.61 -5.92 11.12 -5.92 9.63 C-5.93 8.92 -5.93 8.21 -5.94 7.48 C-5.91 2.19 -5.72 0.39 0 0 Z " fill="#FAFCFD" transform="translate(682.6875,428.75)"/>
<path d="M0 0 C3.8 0.81 4.63 1.45 6.81 4.69 C8.53 9.47 8.67 13.06 7 17.88 C3.98 21.08 1.33 20.72 -3 21 C-4.94 22.94 -4.4 26.47 -4.56 29.06 C-4.65 30.35 -4.73 31.64 -4.82 32.97 C-4.88 33.97 -4.94 34.97 -5 36 C-10.75 36.12 -10.75 36.12 -13 35 C-13.07 30.5 -13.13 26 -13.16 21.49 C-13.18 19.96 -13.2 18.43 -13.23 16.9 C-13.26 14.7 -13.28 12.5 -13.29 10.29 C-13.31 9.61 -13.32 8.92 -13.34 8.22 C-13.34 5.34 -13.32 3.46 -11.63 1.07 C-8.21 -1.17 -3.91 -0.34 0 0 Z " fill="#FAFDFF" transform="translate(632,429)"/>
<path d="M0 0 C3.8 0.81 4.63 1.45 6.81 4.69 C8.53 9.47 8.67 13.06 7 17.88 C3.98 21.08 1.33 20.72 -3 21 C-4.94 22.94 -4.4 26.47 -4.56 29.06 C-4.65 30.35 -4.73 31.64 -4.82 32.97 C-4.88 33.97 -4.94 34.97 -5 36 C-10.75 36.12 -10.75 36.12 -13 35 C-13.07 30.5 -13.13 26 -13.16 21.49 C-13.18 19.96 -13.2 18.43 -13.23 16.9 C-13.26 14.7 -13.28 12.5 -13.29 10.29 C-13.31 9.61 -13.32 8.92 -13.34 8.22 C-13.34 5.34 -13.32 3.46 -11.63 1.07 C-8.21 -1.17 -3.91 -0.34 0 0 Z " fill="#FAFDFF" transform="translate(604,429)"/>
<path d="M0 0 C1.32 0 2.64 0 4 0 C5.37 2.74 5.22 5.04 5.32 8.1 C5.38 9.92 5.38 9.92 5.44 11.77 C5.48 13.04 5.52 14.32 5.56 15.62 C5.61 16.9 5.65 18.18 5.69 19.5 C5.8 22.67 5.9 25.83 6 29 C7.32 29.33 8.64 29.66 10 30 C10.02 29.16 10.04 28.32 10.06 27.46 C10.14 24.36 10.22 21.25 10.32 18.15 C10.37 16.14 10.42 14.14 10.47 12.13 C10.51 10.87 10.55 9.62 10.59 8.32 C10.62 7.16 10.65 6 10.68 4.8 C11 2 11 2 13 0 C15.62 0.38 15.62 0.38 18 1 C18.07 5.34 18.13 9.68 18.16 14.02 C18.18 15.5 18.2 16.98 18.23 18.45 C18.26 20.58 18.28 22.7 18.29 24.83 C18.31 26.11 18.32 27.38 18.34 28.7 C17.98 32.19 17.51 33.59 15 36 C12.26 36.57 12.26 36.57 9.12 36.56 C8.1 36.58 7.07 36.61 6.01 36.63 C1.95 35.78 0.6 34.19 -2 31 C-2.6 27.8 -2.6 27.8 -2.56 24.24 C-2.55 22.96 -2.54 21.67 -2.54 20.35 C-2.52 19.69 -2.5 19.02 -2.49 18.34 C-2.44 16.31 -2.43 14.28 -2.42 12.24 C-2.29 2.29 -2.29 2.29 0 0 Z " fill="#FAFDFF" transform="translate(564,429)"/>
<path d="M0 0 C2.5 2.25 2.96 3.39 3.19 6.75 C3.09 7.86 3.09 7.86 3 9 C1.35 9.33 -0.3 9.66 -2 10 C-2.66 8.35 -3.32 6.7 -4 5 C-4.99 5.66 -5.98 6.32 -7 7 C-6.43 10.53 -5.24 12.05 -2.62 14.44 C1.41 18.35 4.11 21.26 4.38 27.06 C3.99 31.08 3.76 32.23 1 35 C-3.69 36.08 -7.87 35.62 -12.06 33.31 C-14.2 30.76 -14.91 29.32 -15 26 C-14.34 25.34 -13.68 24.68 -13 24 C-10.88 24.38 -10.88 24.38 -9 25 C-8.67 26.32 -8.34 27.64 -8 29 C-6.35 29.33 -4.7 29.66 -3 30 C-3.98 23.42 -7.21 20.38 -12 15.92 C-14.52 13.5 -14.96 12.63 -15.19 9.12 C-15 5.97 -14.89 4.49 -13 2 C-8.42 -1.09 -5.31 -1.5 0 0 Z " fill="#FAFDFF" transform="translate(550,430)"/>
<path d="M0 0 C0 0.66 0 1.32 0 2 C-2.95 2.98 -5.71 3.38 -8.79 3.74 C-12.42 4.17 -16.04 4.69 -19.66 5.19 C-20.84 5.36 -20.84 5.36 -22.04 5.52 C-24.53 5.87 -27.01 6.22 -29.5 6.56 C-31.2 6.8 -32.9 7.04 -34.59 7.27 C-38.73 7.85 -42.86 8.42 -47 9 C-47 9.66 -47 10.32 -47 11 C-49.48 10.5 -49.48 10.5 -52 10 C-52 10.66 -52 11.32 -52 12 C-56.46 12.5 -56.46 12.5 -61 13 C-61 12.34 -61 11.68 -61 11 C-63.27 11.41 -65.54 11.83 -67.81 12.25 C-68.52 12.38 -69.23 12.51 -69.95 12.65 C-74.01 13.41 -78.05 14.21 -82.08 15.09 C-82.92 15.27 -83.76 15.45 -84.63 15.64 C-86.26 16 -87.89 16.36 -89.53 16.73 C-93.77 17.66 -97.63 18.2 -102 18 C-100.68 17.34 -99.36 16.68 -98 16 C-98 15.01 -98 14.02 -98 13 C-24.4 -1.18 -24.4 -1.18 0 0 Z " fill="#005FC1" transform="translate(826,278)"/>
<path d="M0 0 C0.99 0.33 1.98 0.66 3 1 C3.5 2.49 3.5 2.49 4 4 C2.58 4.48 1.17 4.96 -0.25 5.44 C-1.04 5.7 -1.83 5.97 -2.64 6.25 C-4.03 6.69 -5.43 7.1 -6.84 7.44 C-9.24 8.06 -11.56 8.83 -13.9 9.64 C-27.18 14.15 -40.48 18.29 -54 22 C-55.2 22.33 -56.4 22.66 -57.64 23 C-58.28 23.18 -58.92 23.35 -59.57 23.53 C-60.89 23.9 -62.21 24.26 -63.52 24.62 C-66.76 25.51 -69.99 26.4 -73.23 27.29 C-75 27.77 -75 27.77 -76.81 28.27 C-77.86 28.55 -78.91 28.84 -79.99 29.13 C-82.09 29.74 -84.17 30.41 -86.24 31.13 C-89.08 32.02 -90.27 32.05 -93 31 C-91.89 30.73 -90.77 30.46 -89.62 30.19 C-85.78 29.34 -85.78 29.34 -84 26 C-81.1 24.9 -81.1 24.9 -77.41 23.88 C-76.75 23.69 -76.09 23.51 -75.41 23.32 C-73.3 22.72 -71.18 22.14 -69.06 21.56 C-66.3 20.8 -63.54 20.03 -60.79 19.25 C-60.11 19.06 -59.44 18.88 -58.74 18.68 C-53.92 17.31 -49.24 15.69 -44.55 13.92 C-40.21 12.35 -35.77 11.16 -31.31 9.94 C-22 7.42 -22 7.42 -13 4 C-12.67 3.01 -12.34 2.02 -12 1 C-8.53 1.46 -5.33 1.89 -2 3 C-1.67 2.34 -1.34 1.68 -1 1 C-0.67 0.67 -0.34 0.34 0 0 Z " fill="#FAD80B" transform="translate(555,729)"/>
<path d="M0 0 C-1.98 0.99 -1.98 0.99 -4 2 C2.93 2.5 2.93 2.5 10 3 C10 2.34 10 1.68 10 1 C16.96 0.97 23.92 0.96 30.88 0.95 C33.25 0.94 35.62 0.93 37.99 0.92 C41.39 0.91 44.79 0.91 48.18 0.9 C49.25 0.9 50.32 0.89 51.42 0.89 C52.89 0.89 52.89 0.89 54.39 0.89 C55.26 0.88 56.12 0.88 57.02 0.88 C59 1 59 1 60 2 C61.83 2.05 63.67 2.04 65.5 2 C67.33 1.96 69.17 1.95 71 2 C71.33 2.33 71.66 2.66 72 3 C74.18 3.4 76.37 3.74 78.56 4.06 C80.36 4.33 80.36 4.33 82.19 4.6 C83.12 4.73 84.05 4.86 85 5 C85 5.33 85 5.66 85 6 C83.75 5.91 83.75 5.91 82.46 5.82 C81.3 5.73 80.14 5.65 78.94 5.56 C77.25 5.44 77.25 5.44 75.53 5.32 C74.85 5.27 74.18 5.22 73.48 5.17 C71.57 5.04 69.66 4.9 67.75 4.76 C58.19 4.08 48.64 3.71 39.06 3.44 C37.59 3.39 36.12 3.35 34.64 3.31 C31.1 3.2 27.55 3.1 24 3 C24 3.66 24 4.32 24 5 C21.67 5.04 19.33 5.04 17 5 C16.5 4.5 16.5 4.5 16 4 C13.6 4.01 11.23 4.08 8.83 4.2 C8.09 4.23 7.34 4.27 6.58 4.3 C4.14 4.42 1.69 4.55 -0.75 4.69 C-1.58 4.73 -2.41 4.78 -3.26 4.82 C-20.63 5.77 -38.12 7.26 -55.11 11.12 C-58.27 11.83 -60.79 12.21 -64 12 C-60.77 9.85 -59.72 9.8 -56 10 C-56 9.34 -56 8.68 -56 8 C-54.35 8.33 -52.7 8.66 -51 9 C-51 8.34 -51 7.68 -51 7 C-43.55 5.23 -36.08 4.03 -28.5 2.94 C-27.33 2.76 -26.16 2.59 -24.95 2.41 C-19.9 1.67 -14.86 0.96 -9.78 0.44 C-1.68 -0.5 -1.68 -0.5 0 0 Z " fill="#ECF4FB" transform="translate(830,280)"/>
<path d="M0 0 C0.7 0 1.41 0.01 2.13 0.01 C2.83 0.01 3.53 0 4.26 0 C9.5 0.01 9.5 0.01 10.63 1.14 C10.67 2.8 10.67 4.47 10.63 6.14 C8.65 7.13 8.65 7.13 6.63 8.14 C6.64 8.98 6.65 9.83 6.66 10.71 C6.73 19.25 6.35 27.62 5.63 36.14 C3.63 36.18 1.63 36.18 -0.37 36.14 C-3.2 33.31 -2.44 25.82 -2.47 21.98 C-2.46 20.2 -2.45 18.42 -2.43 16.64 C-2.43 15.72 -2.42 14.8 -2.42 13.86 C-2.41 11.62 -2.39 9.38 -2.37 7.14 C-4.85 6.15 -4.85 6.15 -7.37 5.14 C-6.2 -0.04 -5.37 0.01 0 0 Z " fill="#FAFCFD" transform="translate(711.37109375,428.86328125)"/>
<path d="M0 0 C6.14 0.86 10.23 6.45 14 11 C17.3 15.48 20.17 20.22 23 25 C23.37 25.59 23.74 26.18 24.12 26.79 C26.31 30.39 27.52 33.23 27.75 37.44 C27.81 38.3 27.86 39.17 27.92 40.06 C27.95 40.7 27.97 41.34 28 42 C23.82 40.22 22.81 38.15 21 34 C20.01 34 19.02 34 18 34 C16.3 31.61 14.83 29.28 13.38 26.75 C12.97 26.07 12.56 25.39 12.14 24.68 C10.23 21.43 8.91 18.67 8 15 C6.45 12.66 6.45 12.66 4.56 10.38 C3.95 9.6 3.33 8.82 2.69 8.02 C1.01 5.95 1.01 5.95 -1 4 C-0.62 1.88 -0.62 1.88 0 0 Z " fill="#005FC1" transform="translate(1006,510)"/>
<path d="M0 0 C1.56 3.12 1.56 6.6 1 10 C0.25 10.73 0.25 10.73 -0.51 11.47 C-2.22 12.91 -2.22 12.91 -2.22 15.19 C-2.17 15.97 -2.12 16.76 -2.06 17.56 C-1.91 19.94 -1.91 19.94 -2 22 C-4 24 -4 24 -7.38 24.31 C-11.09 23.99 -12.37 23.52 -15 21 C-14.12 16.25 -14.12 16.25 -13 14 C-12.34 14 -11.68 14 -11 14 C-11.26 13.34 -11.53 12.67 -11.8 11.99 C-12.75 9.31 -13.54 6.8 -14 4 C-12.31 0.54 -11.13 -0.57 -7.56 -1.94 C-4.53 -2.01 -2.67 -1.41 0 0 Z " fill="#FBD809" transform="translate(756,708)"/>
<path d="M0 0 C2.88 1.29 3.96 2.24 5.38 5.06 C5.13 8.43 4.79 9.65 2.38 12.06 C2.67 13.4 3.02 14.74 3.38 16.06 C3.81 22.31 3.81 22.31 2.25 25 C-0.59 26.61 -2.41 26.5 -5.62 26.06 C-9 24.06 -9 24.06 -11.62 22.06 C-10.99 16.39 -10.99 16.39 -9.06 14.69 C-6.93 12.28 -7.71 10.12 -7.83 7.07 C-7.62 5.06 -7.62 5.06 -5.44 2 C-2.62 0.06 -2.62 0.06 0 0 Z " fill="#005FC1" transform="translate(474.625,227.9375)"/>
<path d="M0 0 C2.88 2.01 4.68 3.47 5.41 7.01 C5.53 9.96 5.53 12.28 3.74 14.71 C0.97 16.76 -1.44 16.47 -4.77 16.35 C-8.14 15.82 -9.79 14.55 -12 12 C-13.12 9.62 -13.12 9.62 -13 7 C-9.12 1.54 -6.8 -0.8 0 0 Z " fill="#FBD809" transform="translate(772,681)"/>
<path d="M0 0 C1.32 0.33 2.64 0.66 4 1 C3.67 3.31 3.34 5.62 3 8 C3.99 8.33 4.98 8.66 6 9 C5.36 9.1 4.72 9.21 4.06 9.31 C3.38 9.54 2.7 9.77 2 10 C1.67 10.99 1.34 11.98 1 13 C-3.7 14.79 -8 15.65 -13 15 C-15.94 12.5 -15.94 12.5 -18 10 C-15.93 5.96 -14.24 3.75 -10 2 C-6.98 1.77 -4.02 1.82 -1 2 C-0.67 1.34 -0.34 0.68 0 0 Z " fill="#0260C1" transform="translate(597,310)"/>
<path d="M0 0 C3.26 2.91 4.78 4.8 5.56 9.12 C5 12 5 12 3.5 14.38 C0.04 16.62 -3.05 16.78 -7 16 C-10.16 14.18 -11.58 12.94 -13.06 9.62 C-12.97 5.84 -11.31 3.91 -9 1 C-5.82 -0.59 -3.5 -0.42 0 0 Z " fill="#005FC1" transform="translate(456,263)"/>
<path d="M0 0 C2.28 2.66 2.93 4.55 3.5 8 C3 11 3 11 0.94 13.94 C-2 16 -2 16 -5.5 16.12 C-10.23 14.6 -12.7 12.31 -15.12 8 C-15 6 -15 6 -12.81 3.38 C-8.3 -0.44 -5.91 -1.89 0 0 Z " fill="#FBD809" transform="translate(739,748)"/>
<path d="M0 0 C3.87 2.55 5.97 5.65 6.94 10.19 C6.38 12.56 6.38 12.56 4.31 14.88 C0.62 16.99 -1.43 17.16 -5.62 16.56 C-8.41 14.86 -10.09 13.57 -11.62 10.69 C-11.62 7.3 -10.47 5.37 -8.62 2.56 C-5.48 0.38 -3.82 -0.64 0 0 Z " fill="#005FC1" transform="translate(489.625,196.4375)"/>
<path d="M0 0 C3 2 3 2 3.69 4.12 C3.79 4.74 3.89 5.36 4 6 C1.32 7.79 0.09 8.36 -2.91 9 C-3.68 9.16 -4.44 9.33 -5.22 9.5 C-6.02 9.66 -6.81 9.83 -7.62 10 C-8.39 10.16 -9.16 10.33 -9.96 10.5 C-11.51 10.83 -13.06 11.16 -14.62 11.49 C-18.42 12.3 -22.21 13.15 -26 14 C-25.67 13.01 -25.34 12.02 -25 11 C-25.99 10.67 -26.98 10.34 -28 10 C-23.35 4.3 -18.72 3.52 -11.59 2.73 C-10.07 2.58 -8.54 2.43 -7.01 2.29 C-4.8 2.05 -4.8 2.05 -2.12 0.81 C-1.42 0.54 -0.72 0.28 0 0 Z " fill="#FAF9E9" transform="translate(776,651)"/>
<path d="M0 0 C2.42 3.63 2.88 7.04 3.56 11.25 C3.75 12.36 3.75 12.36 3.94 13.49 C4.52 16.93 5.05 20.36 5.5 23.82 C6.09 27.55 7.47 30.55 9 34 C9.38 35.66 9.72 37.32 10 39 C10.33 39.99 10.66 40.98 11 42 C11.04 44.33 11.04 46.67 11 49 C7.1 44.84 6.11 41.45 5 36 C4.34 36 3.68 36 3 36 C-1.09 27.03 -1.76 18.69 -2 9 C-1.34 9 -0.68 9 0 9 C0 8.01 0 7.02 0 6 C0 4 0 2 0 0 Z " fill="#156CC6" transform="translate(161,152)"/>
<path d="M0 0 C0.99 0.5 0.99 0.5 2 1 C0.49 5.25 -1.96 6.41 -5.88 8.44 C-6.51 8.77 -7.14 9.1 -7.79 9.44 C-16 13.63 -24.41 17.42 -32.78 21.27 C-40 24.59 -47.12 28.02 -54.2 31.63 C-58.37 33.67 -62.65 35.39 -67 37 C-67.33 36.34 -67.66 35.68 -68 35 C-67.34 35 -66.68 35 -66 35 C-65.67 34.34 -65.34 33.68 -65 33 C-64.01 32.5 -64.01 32.5 -63 32 C-62.34 32.33 -61.68 32.66 -61 33 C-60.67 32.34 -60.34 31.68 -60 31 C-57.79 29.68 -57.79 29.68 -55.06 28.31 C-54.17 27.85 -53.27 27.4 -52.35 26.93 C-51.57 26.62 -50.8 26.31 -50 26 C-49.34 26.33 -48.68 26.66 -48 27 C-47.67 26.34 -47.34 25.68 -47 25 C-44.67 24.33 -42.33 23.67 -40 23 C-39.67 22.34 -39.34 21.68 -39 21 C-37.44 20.01 -37.44 20.01 -35.43 18.98 C-34.7 18.6 -33.97 18.21 -33.21 17.82 C-32.44 17.43 -31.67 17.03 -30.88 16.62 C-29.37 15.85 -27.87 15.07 -26.37 14.29 C-25.63 13.91 -24.9 13.53 -24.14 13.14 C-22.1 12.05 -20.12 10.89 -18.13 9.7 C-15 8 -15 8 -12.06 8.25 C-11.38 8.5 -10.7 8.75 -10 9 C-10.5 7.51 -10.5 7.51 -11 6 C-9.21 4.97 -7.42 3.95 -5.62 2.94 C-4.63 2.37 -3.63 1.8 -2.6 1.21 C-1.74 0.81 -0.88 0.41 0 0 Z " fill="#005FC1" transform="translate(575,531)"/>
<path d="M0 0 C3.5 0.19 3.5 0.19 7 1 C9.22 4.33 9.3 5.6 9.31 9.5 C9.33 10.46 9.35 11.42 9.36 12.41 C9 15 9 15 7.71 16.83 C4.93 18.74 2.26 18.24 -1 18 C-2.98 16.02 -2.19 12.27 -2.19 9.56 C-2.2 8.87 -2.21 8.17 -2.22 7.46 C-2.23 5.64 -2.12 3.82 -2 2 C-1.34 1.34 -0.68 0.68 0 0 Z " fill="#005FC1" transform="translate(591,486)"/>
<path d="M0 0 C6.96 -0.03 13.92 -0.04 20.88 -0.05 C23.25 -0.06 25.62 -0.07 27.99 -0.08 C31.39 -0.09 34.79 -0.09 38.18 -0.1 C39.25 -0.1 40.32 -0.11 41.42 -0.11 C42.89 -0.11 42.89 -0.11 44.39 -0.11 C45.26 -0.12 46.12 -0.12 47.02 -0.12 C49 0 49 0 50 1 C51.83 1.05 53.67 1.04 55.5 1 C57.33 0.96 59.17 0.95 61 1 C61.5 1.5 61.5 1.5 62 2 C64.18 2.4 66.37 2.74 68.56 3.06 C70.36 3.33 70.36 3.33 72.19 3.6 C73.12 3.73 74.05 3.86 75 4 C75 4.33 75 4.66 75 5 C74.16 4.94 73.33 4.88 72.46 4.82 C71.3 4.73 70.14 4.65 68.94 4.56 C67.81 4.48 66.69 4.4 65.53 4.32 C64.85 4.27 64.18 4.22 63.48 4.17 C61.57 4.04 59.66 3.9 57.75 3.76 C48.19 3.08 38.64 2.71 29.06 2.44 C27.59 2.39 26.12 2.35 24.64 2.31 C21.1 2.2 17.55 2.1 14 2 C14 2.66 14 3.32 14 4 C11.67 4.04 9.33 4.04 7 4 C6.67 3.67 6.34 3.34 6 3 C4.44 2.98 2.87 3.04 1.31 3.12 C0.36 3.17 -0.58 3.22 -1.55 3.27 C-2.55 3.32 -3.54 3.38 -4.56 3.44 C-5.56 3.49 -6.56 3.54 -7.58 3.6 C-10.06 3.73 -12.53 3.86 -15 4 C-13.68 2.5 -13.68 2.5 -12 1 C-9.08 0.93 -9.08 0.93 -5.81 1.31 C-4.73 1.43 -3.64 1.55 -2.52 1.68 C-1.69 1.78 -0.86 1.89 0 2 C0 1.34 0 0.68 0 0 Z " fill="#FAFDFF" transform="translate(840,281)"/>
<path d="M0 0 C-24.27 8.52 -48.56 16.96 -73 25 C-73.99 25.33 -74.98 25.66 -76 26 C-76 25.34 -76 24.68 -76 24 C-74.35 23.67 -72.7 23.34 -71 23 C-71 22.34 -71 21.68 -71 21 C-65.15 18.96 -59.28 17.22 -53.29 15.65 C-51 15.08 -51 15.08 -49 14 C-48.34 14.33 -47.68 14.66 -47 15 C-46.67 14.34 -46.34 13.68 -46 13 C-42.55 11.85 -39.65 11 -36 11 C-35.67 10.34 -35.34 9.68 -35 9 C-33.03 8.25 -33.03 8.25 -30.5 7.56 C-27.2 6.63 -23.93 5.67 -20.69 4.56 C-19.13 4.04 -17.56 3.52 -16 3 C-14.9 2.63 -13.79 2.27 -12.65 1.89 C-11.49 1.51 -10.32 1.14 -9.12 0.75 C-7.49 0.22 -7.49 0.22 -5.82 -0.33 C-3 -1 -3 -1 0 0 Z " fill="#FBD809" transform="translate(703,680)"/>
<path d="M0 0 C2 2 2 2 2.23 4.43 C2.22 5.43 2.21 6.42 2.2 7.45 C2.19 9.06 2.19 9.06 2.18 10.71 C2.16 11.83 2.14 12.96 2.12 14.12 C2.12 15.26 2.11 16.4 2.1 17.57 C2.07 20.38 2.04 23.19 2 26 C-2.88 25.12 -2.88 25.12 -4 24 C-4.25 20.9 -4.19 17.79 -4.19 14.69 C-4.21 13.39 -4.21 13.39 -4.22 12.06 C-4.23 11.22 -4.23 10.38 -4.23 9.51 C-4.23 8.74 -4.24 7.97 -4.24 7.18 C-3.97 4.7 -3.32 3.11 -2 1 C-1.34 0.67 -0.68 0.34 0 0 Z " fill="#005FC1" transform="translate(658,434)"/>
<path d="M0 0 C2.29 0.17 2.29 0.17 5 1 C6.8 3.36 6.8 3.36 8.31 6.31 C8.82 7.28 9.34 8.24 9.86 9.24 C11 12 11 12 11 16 C11.66 16 12.32 16 13 16 C13 16.99 13 17.98 13 19 C13.99 19.33 14.98 19.66 16 20 C17.53 21.72 17.53 21.72 19.14 23.93 C19.71 24.73 20.29 25.52 20.88 26.34 C21.48 27.18 22.07 28.01 22.69 28.88 C23.29 29.7 23.9 30.53 24.53 31.39 C29 37.62 29 37.62 29 41 C21.12 32.93 14.64 24.2 8.3 14.9 C7.19 13.28 6.07 11.66 4.94 10.05 C2.62 6.68 0.81 4.06 0 0 Z " fill="#F3F9FD" transform="translate(190,404)"/>
<path d="M0 0 C0.5 1.49 0.5 1.49 1 3 C3.02 3.73 3.02 3.73 5 4 C4.34 4.33 3.68 4.66 3 5 C3.5 5.99 3.5 5.99 4 7 C3.01 7 2.02 7 1 7 C0.67 9.31 0.34 11.62 0 14 C-0.66 13.67 -1.32 13.34 -2 13 C-1.67 11.68 -1.34 10.36 -1 9 C-2.07 9.35 -3.14 9.7 -4.25 10.06 C-8.92 11.23 -8.92 11.23 -12 10 C-10.68 9.34 -9.36 8.68 -8 8 C-18.07 10.46 -28.06 13.08 -38 16 C-38 15.34 -38 14.68 -38 14 C-33.84 12.68 -29.67 11.37 -25.5 10.06 C-24.33 9.69 -23.15 9.32 -21.95 8.93 C-12.12 5.87 -12.12 5.87 -7.24 5.37 C-5.64 5.19 -5.64 5.19 -4 5 C-2.55 3.1 -2.55 3.1 -2 1 C-1.34 0.67 -0.68 0.34 0 0 Z " fill="#FAD913" transform="translate(751,661)"/>
<path d="M0 0 C2.44 3.66 2.24 5.69 2 10 C1 11 1 11 -2.31 11.25 C-6.1 10.99 -7.33 10.56 -10 8 C-9.65 5.37 -9.28 3.42 -7.81 1.19 C-5.12 -0.58 -3.13 -0.4 0 0 Z " fill="#005FC1" transform="translate(468,186)"/>
<path d="M0 0 C1.49 2.98 1.12 5.72 1 9 C0 10 0 10 -3.88 10.25 C-6.52 10.21 -7.74 10.15 -10.06 8.81 C-11 7 -11 7 -10.94 4.5 C-8.83 -1.13 -5.46 -1.58 0 0 Z " fill="#FBD809" transform="translate(761,764)"/>
<path d="M0 0 C7.63 4.44 12.38 11.06 16 19 C16.22 22.41 16.22 22.41 16 25 C13.24 22.43 11.09 19.54 8.88 16.5 C8.17 15.54 7.47 14.58 6.74 13.59 C5 11 5 11 4 8 C3.34 7.34 2.68 6.68 2 6 C0 4 0 4 -1 1 C-0.67 0.67 -0.34 0.34 0 0 Z " fill="#0C65B7" transform="translate(1021,507)"/>
<path d="M0 0 C4.9 0.57 8.06 4.27 11.58 7.41 C14.38 9.84 16.4 11.23 20 12 C22 15 22 15 22 18 C16.93 17.55 14.71 15.23 11 12 C10.01 11.67 9.02 11.34 8 11 C6.64 9.35 5.31 7.69 4 6 C3.34 5.67 2.68 5.34 2 5 C1.28 3.36 0.61 1.69 0 0 Z " fill="#0562C2" transform="translate(213,577)"/>
<path d="M0 0 C2.66 0.74 3.94 1.22 6 3 C8.09 6.84 9.52 10.89 11 15 C11.76 16.92 12.53 18.84 13.31 20.75 C13.88 22.17 14.44 23.58 15 25 C11.57 23.86 11.34 23.39 9.62 20.39 C9.2 19.66 8.77 18.92 8.33 18.16 C7.67 17 7.67 17 7 15.81 C6.56 15.06 6.12 14.3 5.67 13.52 C3.31 9.41 1.07 5.27 -1 1 C-0.67 0.67 -0.34 0.34 0 0 Z " fill="#0561BC" transform="translate(1042,507)"/>
<path d="M0 0 C2.01 3.02 2.27 3.81 2.41 7.23 C2.45 8.03 2.49 8.84 2.53 9.66 C2.56 10.5 2.59 11.33 2.62 12.19 C2.66 13.03 2.7 13.88 2.74 14.75 C2.84 16.83 2.92 18.92 3 21 C1.02 21 -0.96 21 -3 21 C-4.23 18.54 -3.93 17.58 -3.48 14.9 C-3.28 13.7 -3.28 13.7 -3.07 12.47 C-2.92 11.64 -2.78 10.8 -2.62 9.94 C-2.42 8.68 -2.42 8.68 -2.2 7.39 C-1.13 1.13 -1.13 1.13 0 0 Z " fill="#FBD809" transform="translate(644,497)"/>
<path d="M0 0 C0 0.66 0 1.32 0 2 C-0.93 2.15 -0.93 2.15 -1.88 2.31 C-4.37 2.88 -4.37 2.88 -6 6 C-9.62 6.69 -9.62 6.69 -13 7 C-13 7.66 -13 8.32 -13 9 C-14.32 9 -15.64 9 -17 9 C-16.34 7.68 -15.68 6.36 -15 5 C-17.31 5 -19.62 5 -22 5 C-19.07 3.43 -16.19 2.37 -13 1.44 C-12.15 1.19 -11.31 0.94 -10.44 0.68 C-9.63 0.46 -8.83 0.23 -8 0 C-7.28 -0.2 -6.57 -0.41 -5.83 -0.62 C-3.61 -1.08 -2.14 -0.69 0 0 Z " fill="#FAF9E4" transform="translate(475,753)"/>
<path d="M0 0 C0.66 0 1.32 0 2 0 C4.03 4.33 4.52 8.29 5 13 C1.25 16 1.25 16 -1 16 C-2.36 13.27 -2.17 11.04 -2.19 8 C-2.2 6.93 -2.22 5.86 -2.23 4.75 C-2 2 -2 2 0 0 Z " fill="#0360BE" transform="translate(591,511)"/>
<path d="M0 0 C0.89 -0.03 1.77 -0.05 2.69 -0.08 C3.45 0.03 4.21 0.14 5 0.25 C5.66 1.24 6.32 2.23 7 3.25 C-0.24 4.48 -7.49 4.61 -14.81 4.86 C-16.3 4.91 -16.3 4.91 -17.82 4.97 C-18.72 5 -19.62 5.03 -20.55 5.06 C-22.81 5.24 -24.82 5.62 -27 6.25 C-27.66 5.26 -28.32 4.27 -29 3.25 C-27.72 3.11 -26.44 2.96 -25.12 2.81 C-22.74 2.54 -21.16 2.33 -19 1.25 C-14.44 0.99 -11.12 1.25 -7 3.25 C-7 2.59 -7 1.93 -7 1.25 C-4.53 0.02 -2.75 0.05 0 0 Z " fill="#FBD809" transform="translate(955,341.75)"/>
<path d="M0 0 C0.99 0.66 1.98 1.32 3 2 C2.28 2.26 1.57 2.51 0.83 2.78 C-2.45 3.96 -5.72 5.13 -9 6.31 C-10.13 6.72 -11.25 7.12 -12.41 7.54 C-13.51 7.93 -14.61 8.33 -15.75 8.74 C-16.83 9.12 -17.9 9.51 -19.01 9.9 C-21.55 10.84 -24.06 11.83 -26.56 12.86 C-30.01 14 -30.76 14.04 -34 13 C-28.23 10.27 -22.38 8 -16.38 5.88 C-15.3 5.49 -15.3 5.49 -14.21 5.11 C-10.84 3.93 -7.48 2.83 -4.04 1.88 C-1.15 1.31 -1.15 1.31 0 0 Z " fill="#FBD809" transform="translate(619,706)"/>
<path d="M0 0 C-6.93 3.35 -13.99 5.68 -21.38 7.81 C-22.45 8.14 -23.53 8.46 -24.64 8.79 C-25.68 9.1 -26.71 9.4 -27.77 9.71 C-28.71 9.98 -29.64 10.25 -30.6 10.53 C-33 11 -33 11 -36 10 C-35.34 9.34 -34.68 8.68 -34 8 C-33.34 8.33 -32.68 8.66 -32 9 C-32 8.34 -32 7.68 -32 7 C-31.16 6.84 -31.16 6.84 -30.31 6.67 C-26.5 5.88 -22.86 5.03 -19.25 3.56 C-4.51 -2.26 -4.51 -2.26 0 0 Z " fill="#FAFDFF" transform="translate(511,743)"/>
<path d="M0 0 C9.52 1.55 9.52 1.55 13 6 C13.66 6.66 14.32 7.32 15 8 C15.7 9.32 16.37 10.65 17 12 C9.73 10.71 4.73 6.46 -1 2 C-0.67 1.34 -0.34 0.68 0 0 Z " fill="#FAD913" transform="translate(287,660)"/>
<path d="M0 0 C6.21 0.89 11.87 2.26 17 6 C18.81 8.69 18.81 8.69 20 11 C19.16 10.57 19.16 10.57 18.3 10.13 C12.03 7.05 5.99 4.61 -1 4 C-0.67 2.68 -0.34 1.36 0 0 Z " fill="#FBD809" transform="translate(990,350)"/>
<path d="M0 0 C-3.21 0.69 -6.43 1.38 -9.64 2.07 C-12.76 2.73 -15.87 3.41 -18.98 4.09 C-20.68 4.46 -22.37 4.82 -24.06 5.19 C-24.87 5.37 -25.68 5.55 -26.51 5.73 C-30.41 6.57 -33.99 7.23 -38 7 C-34.48 5.03 -30.88 4.05 -27 3 C-25.87 2.65 -24.73 2.3 -23.56 1.94 C-20.38 1.1 -17.32 0.63 -14.05 0.29 C-11.87 -0.02 -9.86 -0.57 -7.75 -1.19 C-3.78 -2.05 -3.26 -1.94 0 0 Z " fill="#005FC1" transform="translate(678,304)"/>
<path d="M0 0 C2 0 2 0 4.25 1.94 C7.73 5.54 10.33 9.79 13 14 C12.01 14.5 12.01 14.5 11 15 C7.38 13.75 5.85 11.78 3.81 8.62 C3.3 7.85 2.79 7.08 2.27 6.29 C1.08 4.15 0.45 2.39 0 0 Z " fill="#FAFCFA" transform="translate(1006,633)"/>
<path d="M0 0 C3.2 1.47 5.85 3.28 8.62 5.44 C9.4 6.03 10.18 6.63 10.98 7.25 C13 9 13 9 15 12 C14.67 12.99 14.34 13.98 14 15 C14 14.34 14 13.68 14 13 C13.27 12.76 12.55 12.53 11.8 12.28 C8.57 10.8 6.67 9.04 4.19 6.5 C3.4 5.71 2.61 4.91 1.79 4.09 C0 2 0 2 0 0 Z " fill="#005FC1" transform="translate(1003,491)"/>
<path d="M0 0 C3 1 3 1 4 3 C4.04 5.33 4.04 7.67 4 10 C2.33 10.04 0.67 10.04 -1 10 C-2 9 -2 9 -2.19 5.56 C-2 2 -2 2 0 0 Z " fill="#005FC1" transform="translate(686,434)"/>
<path d="M0 0 C3.25 4.87 4.48 10.5 6.19 16.06 C6.57 17.27 6.95 18.48 7.34 19.73 C7.7 20.88 8.05 22.03 8.42 23.22 C8.91 24.81 8.91 24.81 9.41 26.43 C10 29 10 29 9 31 C8.34 30.67 7.68 30.34 7 30 C6.26 27.52 5.63 25.08 5.06 22.56 C4.72 21.1 4.37 19.64 4.02 18.18 C3.76 17.1 3.76 17.1 3.5 16.01 C2.66 12.63 1.6 9.32 0.52 6.02 C0 4 0 4 0 0 Z " fill="#FAFDFF" transform="translate(1148,531)"/>
<path d="M0 0 C1.52 0.25 1.52 0.25 3.06 0.5 C6.94 1.08 6.94 1.08 10.62 1 C13.61 1 16.12 1.3 19 2 C19.33 1.34 19.66 0.68 20 0 C21.32 0.99 22.64 1.98 24 3 C7.46 5.13 7.46 5.13 1.88 2.56 C1.26 2.05 0.64 1.53 0 1 C0 0.67 0 0.34 0 0 Z " fill="#005FC1" transform="translate(458,334)"/>
<path d="M0 0 C1.32 0.66 2.64 1.32 4 2 C4 4.31 4 6.62 4 9 C2.33 9.04 0.67 9.04 -1 9 C-2 8 -2 8 -2.19 5.06 C-2 2 -2 2 0 0 Z " fill="#005FC1" transform="translate(629,435)"/>
<path d="M0 0 C1.32 0.66 2.64 1.32 4 2 C4 4.31 4 6.62 4 9 C2.33 9.04 0.67 9.04 -1 9 C-2 8 -2 8 -2.19 5.06 C-2 2 -2 2 0 0 Z " fill="#005FC1" transform="translate(601,435)"/>
<path d="M0 0 C0 0.99 0 1.98 0 3 C-1.74 4.04 -3.49 5.05 -5.25 6.06 C-6.71 6.92 -6.71 6.92 -8.2 7.79 C-11 9 -11 9 -13.36 8.68 C-13.9 8.46 -14.44 8.23 -15 8 C-14.67 7.01 -14.34 6.02 -14 5 C-10.83 3.69 -8.44 3 -5 3 C-4.67 2.34 -4.34 1.68 -4 1 C-1.94 0.38 -1.94 0.38 0 0 Z " fill="#FBD809" transform="translate(577,528)"/>
<path d="M0 0 C5.94 0 11.88 0 18 0 C18.33 0.66 18.66 1.32 19 2 C9.6 2.5 9.6 2.5 0 3 C0 2.01 0 1.02 0 0 Z " fill="#69A1DB" transform="translate(854,283)"/>
<path d="M0 0 C0.66 0.66 1.32 1.32 2 2 C1.01 2 0.02 2 -1 2 C-1.33 2.66 -1.66 3.32 -2 4 C-6.17 5.35 -9.74 4.75 -14 4 C-13 2 -13 2 -9.81 0.88 C-6.33 0.08 -3.55 -0.33 0 0 Z " fill="#FAFCF9" transform="translate(442,757)"/>
<path d="M0 0 C0.66 0.33 1.32 0.66 2 1 C0.62 3 0.62 3 -1 5 C-1.66 5 -2.32 5 -3 5 C-3.43 6.14 -3.43 6.14 -3.88 7.31 C-5 10 -5 10 -7 13 C-7 12.34 -7 11.68 -7 11 C-7.99 10.67 -8.98 10.34 -10 10 C-7.91 5.93 -6.01 4.16 -2 2 C-1.34 1.34 -0.68 0.68 0 0 Z " fill="#FBD809" transform="translate(801,670)"/>
<path d="M0 0 C0.99 0.33 1.98 0.66 3 1 C3.33 1.99 3.66 2.98 4 4 C2.56 4.51 1.13 5 -0.31 5.5 C-1.51 5.92 -1.51 5.92 -2.74 6.34 C-5 7 -5 7 -8 7 C-7.67 5.35 -7.34 3.7 -7 2 C-5.35 2.33 -3.7 2.66 -2 3 C-1.67 2.34 -1.34 1.68 -1 1 C-0.67 0.67 -0.34 0.34 0 0 Z " fill="#FAE040" transform="translate(555,729)"/>
<path d="M0 0 C0 0.66 0 1.32 0 2 C-2.27 2.87 -4.54 3.72 -6.81 4.56 C-7.46 4.81 -8.1 5.06 -8.76 5.31 C-13.66 7.11 -13.66 7.11 -17 6 C-12.01 2.62 -6.09 0 0 0 Z " fill="#FAFDFF" transform="translate(645,700)"/>
<path d="M0 0 C4 1.33 8 2.67 12 4 C12 4.66 12 5.32 12 6 C12.99 6.33 13.98 6.66 15 7 C13 8 13 8 9.96 7 C8.78 6.53 7.59 6.05 6.38 5.56 C5.19 5.09 4 4.62 2.77 4.13 C1.86 3.76 0.94 3.38 0 3 C0 2.01 0 1.02 0 0 Z " fill="#005FC1" transform="translate(267,614)"/>
<path d="M0 0 C-3.31 2.21 -5.29 2.52 -9.19 3.06 C-10.34 3.23 -11.49 3.39 -12.68 3.56 C-16.45 4.06 -20.22 4.56 -24 5 C-24 4.34 -24 3.68 -24 3 C-15.96 1.22 -8.29 -0.44 0 0 Z " fill="#005FC1" transform="translate(580,323)"/>
<path d="M0 0 C0.33 0.66 0.66 1.32 1 2 C1.99 2.33 2.98 2.66 4 3 C2.31 5.06 2.31 5.06 0 7 C-2.75 6.75 -2.75 6.75 -5 6 C-4.75 4.12 -4.75 4.12 -4 2 C-1.94 0.75 -1.94 0.75 0 0 Z " fill="#005FC1" transform="translate(566,310)"/>
<path d="M0 0 C-14.78 1.33 -14.78 1.33 -21 0 C-21 -0.33 -21 -0.66 -21 -1 C-14.44 -2.46 -5.75 -3.83 0 0 Z " fill="#005FC1" transform="translate(470,341)"/>
<path d="M0 0 C-3.21 2.14 -5.12 2.53 -8.88 3.12 C-10.42 3.38 -10.42 3.38 -11.99 3.63 C-14.7 3.96 -17.27 4.07 -20 4 C-17.39 1.39 -15.62 1.45 -12 0.94 C-1.81 -0.54 -1.81 -0.54 0 0 Z " fill="#FAFDFF" transform="translate(578,325)"/>
<path d="M0 0 C0 0.66 0 1.32 0 2 C-2.27 2.87 -4.54 3.72 -6.81 4.56 C-7.46 4.81 -8.1 5.06 -8.76 5.31 C-13.66 7.11 -13.66 7.11 -17 6 C-15.42 5.18 -13.84 4.37 -12.25 3.56 C-11.37 3.11 -10.49 2.66 -9.58 2.19 C-6.2 0.63 -3.72 0 0 0 Z " fill="#FAFDFF" transform="translate(619,701)"/>
<path d="M0 0 C0 0.66 0 1.32 0 2 C-1.91 2.7 -3.83 3.38 -5.75 4.06 C-6.82 4.45 -7.88 4.83 -8.98 5.22 C-11.92 5.98 -13.22 6.07 -16 5 C-14.4 4.35 -12.79 3.71 -11.19 3.06 C-9.85 2.52 -9.85 2.52 -8.48 1.97 C-5.47 0.79 -3.26 0 0 0 Z " fill="#FAFDFF" transform="translate(695,683)"/>
<path d="M0 0 C0.33 1.98 0.66 3.96 1 6 C-1.94 5.62 -1.94 5.62 -5 5 C-5.33 4.34 -5.66 3.68 -6 3 C-3.38 0 -3.38 0 0 0 Z " fill="#005FC1" transform="translate(475,204)"/>
<path d="M0 0 C0.99 0 1.98 0 3 0 C3.33 1.98 3.66 3.96 4 6 C2.35 6 0.7 6 -1 6 C-1.62 4.12 -1.62 4.12 -2 2 C-1.34 1.34 -0.68 0.68 0 0 Z " fill="#FBD809" transform="translate(747,750)"/>
<path d="M0 0 C-0.66 0.66 -1.32 1.32 -2 2 C-1.67 2.66 -1.34 3.32 -1 4 C-3.97 4 -6.94 4 -10 4 C-10 3.01 -10 2.02 -10 1 C-6.79 -0.61 -3.56 -0.06 0 0 Z " fill="#FAFDFF" transform="translate(794,657)"/>
<path d="M0 0 C3.26 3.17 6.19 6.42 9 10 C9.66 10.66 10.32 11.32 11 12 C7.12 11.45 5.4 9.72 2.75 6.94 C2.04 6.2 1.34 5.47 0.61 4.71 C0.08 4.15 -0.45 3.58 -1 3 C-0.67 2.01 -0.34 1.02 0 0 Z " fill="#FAFDFF" transform="translate(283,610)"/>
<path d="M0 0 C0.5 0.37 1 0.74 1.52 1.12 C-0.52 1.63 -2.57 2.12 -4.61 2.62 C-5.75 2.9 -6.88 3.17 -8.05 3.46 C-11.3 4.08 -14.19 4.24 -17.48 4.12 C-17.48 3.79 -17.48 3.46 -17.48 3.12 C-15.07 2.39 -12.66 1.69 -10.23 0.99 C-9.55 0.78 -8.87 0.58 -8.17 0.36 C-3.04 -1.08 -3.04 -1.08 0 0 Z " fill="#005FC1" transform="translate(719.484375,293.8828125)"/>
<path d="M0 0 C2.38 3.56 3.16 7.08 4.12 11.19 C4.4 12.31 4.4 12.31 4.68 13.46 C5.12 15.3 5.56 17.15 6 19 C4 18 4 18 2.96 15.13 C2.63 13.95 2.29 12.78 1.94 11.56 C0.73 7.18 0.73 7.18 -1 3 C-0.67 2.01 -0.34 1.02 0 0 Z " fill="#005FC1" transform="translate(159,330)"/>
</svg>
